<?xml version="1.0" encoding="UTF-8"?><svg id="b" xmlns="http://www.w3.org/2000/svg" width="82.375mm" height="111.64mm" viewBox="0 0 466.99 632.92"><g id="c"><path d="M259.68,503.84c12.84,15.83-6.6,10.38-29.23,15.19-2.25-3.27.26-6.69-3.42-9.11,1.66-.07,31.11-5.45,32.65-6.07Z" fill="#5d526b" stroke-width="0"/><path d="M154.14,522.06c5.07,5.67-27.16,10.4-30.75,10.63-2.88.18-24.88-.93-15.95-4.56,1.96-.79,38.33-8.11,41.38-8.35.69-.05,1.11-1.13,2.66-.76,1.32.81,1.74,2.58,2.66,3.04Z" fill="#5d526b" stroke-width="0"/><path d="M273.34,496.24c-1.6,2.57-11.34,8.42-3.04,18.22-4.7-1.32-6.33,8.4-2.66,9.87,3.39,1.36,69.41,6.42,72.89,5.32.61-.19-.32-1.62,1.9-3.04l3.8-.38c.11-1.37-.16-2.82,0-4.18,2.46-21.04-16.53-22.95-17.46-18.6,5.31,4.02,3.44,11.81,3.8,17.84-.62-.08-3.29-.94-8.35-1.52.11-2.82-6.42-.67-9.87-3.04,2.19-.65,1.29-2.35,1.52-3.8,1.42.28,1.69-.49,2.28-1.52,1.91-3.29,3.36-8.55,1.52-12.15.51-.17,1.56.41,1.52-.76,5.19,1.76,9.38-1.48,10.63-1.52,1.01-.03,2.03.05,3.04,0l13.29,8.35c12.84-.7,31.23-3.85,37.96,9.87,4.37-.96,9.34-1.36,13.67,0,1.54.48,23.73,19.57,24.68,20.88,9.02,12.48-6.85,18.22,15.95,27.33.14,10.38,8.88,13.56,9.11,14.43.51,1.91-6.94,9.49-3.04,11.39-15.28,16.36-7.97,22.52-8.35,28.09-.27,3.99-3.95,8.64-3.8,9.11,1.13,3.49,12.91-2.99,9.49,6.45H59.6c2.33-14.86,5.81-30.88,16.32-42.14-12.51-15.1.91-55.87,17.84-64.92,12.02-1.48,45.04-5.45,53.53-8.35l1.52,2.28c-3.05.24-39.43,7.56-41.38,8.35-8.94,3.62,13.06,4.74,15.95,4.56,3.59-.23,35.82-4.96,30.75-10.63.69.34,1.97.61,2.28.76,2.41,1.13,11.97,6.9,14.05,6.83,1.61-.05,1.14-1.54,1.9-2.28.76-.73,1.58-1.49,2.28-2.28,4.74,1.22,14.48,2.43,15.95-3.8h.76c2.34-1.03,3.48-4.55,3.8-6.83l3.8-2.28c.25-.02.51.01.76,0,2.5-.13,7.28-.55,5.32-3.04,1.39-.2,3.31-1.47,4.56-2.28.1,1.89,2.11.93,6.07,1.52,2.64.39,10.82,1.54,11.39,1.52,3.68,2.42,1.17,5.84,3.42,9.11,22.64-4.81,42.08.64,29.23-15.19.4-.16,4.53-4.11,6.83-5.32,6.49-3.4,2.68-.61,4.18-.76.38-.04.77-1.64,2.66-1.52Z" fill="#161719" stroke-width="0"/><path d="M372.81,550.15l-22.78,6.07c-.06-.61-1.24-3.57-1.9-3.8-1.65,1.08-3.81,1.06-5.69,1.52-5.73,1.4-18.48,6.21-26.95,8.35-5.32,1.34-39.32,7.85-40.62,9.49-.19.24.11,2.09,0,3.42-36.52,1.52-63.68-9.17-91.49-13.67-21.09-3.41-43.17-3.15-63.78-8.35,29.4-2.91,59.49-.14,88.84-3.04,18.58-1.83,36.86-8.51,55.43-9.87,20.93-1.53,66.68,3.01,82,0,14.14-2.78,4.58-15.45,3.42-24.3q14.81-.38,29.61-.76c5.87,9.62-1.3,25.97-6.07,34.93Z" fill="#5d526b" stroke-width="0"/><path d="M372.81,550.15c-6.7,12.56-21.74,27.55-10.63,25.06,5.73,17.08,56.83,10.71,76.69,12.91-6.88,17.55-8.75,24.7-13.29,43.28h-55.43c-9.88-31.46-16.55-9.88-20.12-43.66-1.04-9.86.18-29.71,0-31.51l22.78-6.07Z" fill="#3b3046" stroke-width="0"/><path d="M341.68,561.54c-.91,15.1-3.18,50.85,14.05,54.67-37.99,2.93-45.88-5.25-76.69-11.39l-1.9-28.85c14.05-1.11,47.63-11.67,64.54-14.43Z" fill="#3b3046" stroke-width="0"/><path d="M341.68,561.54c-16.91,2.76-50.49,13.32-64.54,14.43-1.55.12-1.65-.79-2.28-.76.11-1.32-.19-3.18,0-3.42,1.3-1.64,35.31-8.15,40.62-9.49,8.48-2.14,21.23-6.95,26.95-8.35.28,2.65-.6,4.98-.76,7.59Z" fill="#a5a0a2" stroke-width="0"/><path d="M415.33,534.97c-2.72.37-5.61.05-8.35,0,1.06-2.1-7.84-1.89-9.49-1.52-12.15,2.75-15.94,23.5-11.77-11.01,12.53-6.44,21.97,3.17,29.61,12.53Z" fill="#5d526b" stroke-width="0"/><path d="M378.89,515.23q-14.81.38-29.61.76c-.07-.57-1.62-2.1-.38-4.56,7.29,1.11,25.87-2.96,29.99,3.8Z" fill="#c8c8ca" stroke-width="0"/><path d="M418.37,541.04c-5.34,22.06,13.68,11.22,24.3,39.1.08,1.09-3.07,6.11-3.8,7.97-19.86-2.2-70.96,4.17-76.69-12.91,8.21-10.44,20.87-27.45,30.37-35.69q12.91.76,25.82,1.52Z" fill="#5d526b" stroke-width="0"/><path d="M406.98,534.97c2.74.05,5.64.37,8.35,0,2.62,3.21,4.77,4.15,3.04,6.07q-12.91-.76-25.82-1.52c1.01-.88,3.02-4.14,4.18-4.56,1.6-.57,7.67-.04,10.25,0Z" fill="#8f8d99" stroke-width="0"/><path d="M223.23,529.65c-3.98.14-.98-4.93-3.42-9.87l.38,10.25c-1.67,2.34-2.54.17-3.04.38l-1.14-8.35-.38,9.11c-5.79.89-3.54-.76-3.8-.76-1.04-19.36-15.76-25.28,13.67-16.32-.75,5.78-.87,9.73-2.28,15.57Z" fill="#fdfdfd" stroke-width="0"/><path d="M223.23,529.65c-.59,2.43,3.13,6.46-10.25,7.59-12.93,1.1-42.64-6.13-36.45-9.11,11.87,2.13,23.41,2.49,35.31,2.28.25,0-2,1.65,3.8.76,2.1-.32,1.44-.73,1.52-.76.5-.21,1.36,1.96,3.04-.38l-.38-10.25c2.44,4.94-.56,10.01,3.42,9.87Z" fill="#7e8082" stroke-width="0"/><path d="M217.16,530.41c-.08.03.58.44-1.52.76l.38-9.11,1.14,8.35Z" fill="#212015" stroke-width="0"/><path d="M95.29,320.09c1.59.11,3.06-.55,4.18,1.14,3.71,16.19,13.33,33.13,18.22,45.56.08.21-1.67,2.27-.76,4.56,2.29,5.79,4.47,11.73,6.83,17.46,9.92,24.1,31.84,49.71-10.63,14.43q-7.97-11.39-15.95-22.78c1.3-22.3-15.89-53.25-15.95-56.19-.06-3,11.66-4.35,14.05-4.18Z" fill="#f8d094" stroke-width="0"/><path d="M102.88,437.02c12.25,6.69,22.91,8.66,36.83,8.73l6.83,47.08c1.64,4.88-4.24,11.08-4.94,11.01-1.21-.12-15.36-17.41-15.57-18.6-.41-2.43,11.29-27.57-5.69-5.69-2.51-.03-19.48-41.13-17.46-42.52Z" fill="#f8d094" stroke-width="0"/><path d="M334.85,497c-1.01.05-2.03-.03-3.04,0-.48-6.4,18.73-40.43,18.22-42.9-5.05-4.41-12.56,3.61-1.14-10.25h28.85q-13.1,26.39-26.2,52.77c-3.15,2.61-12,.15-16.7.38Z" fill="#f8d094" stroke-width="0"/><path d="M328.39,386.15q15.76,1.71,31.51,3.42c-5.79,19.6-14.9,37.96-24.68,55.81-7.43-18.85-10.29-39.12-6.83-59.22Z" fill="#d3c3b6" stroke-width="0"/><path d="M387.62,363.37l17.08,1.9c-.16,6.56-13.71,50.94-16.32,52.01l-22.02,1.52-1.14-1.14q11.2-27.14,22.4-54.29Z" fill="#f8d094" stroke-width="0"/><path d="M70.23,238.09c6.98.71-8.05,10.03,10.25,20.88q2.09,11.2,4.18,22.4l-21.26,1.52-14.05-18.6,3.04-20.5c.51-.9,16.91-5.79,17.84-5.69Z" fill="#f8d094" stroke-width="0"/><path d="M82.38,290.48c1.33-.08,4.9-.17,5.32,0,1.38.57,7.94,20.91,5.32,22.02-13.91.98-12.41,3.08-22.4-6.45,4.76-10.63,4.02-15.11,11.77-15.57Z" fill="#f8d094" stroke-width="0"/><path d="M106.68,276.81c5.55,10.69-13.8,4.86,9.11,25.82,3.12.47,15.23-15.42,15.57-7.97.1,2.27-16.12,18.95-18.6,22.4-2.22.1-14.36-31.97-13.29-35.31.38-1.19,6.1-3.3,7.21-4.94Z" fill="#f8d094" stroke-width="0"/><path d="M377.75,425.63c1.53-.07,6.59-.55,7.21,1.14-2.87,14.16-9.2,8.86-28.85,9.11-.72-.9,3.75-8.34,4.94-8.73.8-.26,14.71-1.43,16.7-1.52Z" fill="#f8d094" stroke-width="0"/><path d="M364.08,273.77c6.26-2.76,21.84,16.3-6.07,21.26-2.19-.55,5.03-20.8,6.07-21.26Z" fill="#f8d094" stroke-width="0"/><path d="M62.64,213.03c6.67-.03,5.64,6.18,9.49,10.25-12.36,3.97-25.81,9.56-17.84-8.73,2.99.54,7.93-1.52,8.35-1.52Z" fill="#f8d094" stroke-width="0"/><path d="M330.67,456l11.77,1.14c-10.71,11.26-15.85,28.82-11.77-1.14Z" fill="#f6deb3" stroke-width="0"/><path d="M74.41,177.34c11.06,2.89,3.92,3.11-2.28,20.12-1.11,2.49-16.32,6.2-17.08,5.69-5.87-3.9,7.53-5.23,7.97-5.69.79-.82,4.59-15.7,6.83-21.64,1.42.79,3,1.11,4.56,1.52Z" fill="#f8d094" stroke-width="0"/><path d="M74.41,177.34c-1.56-.41-3.13-.73-4.56-1.52,3.26-8.63,4.18-18.01,12.53-23.54,2.54,1.76-8.74,19.42-7.97,25.06Z" fill="#f6deb3" stroke-width="0"/><path d="M381.54,260.11c6.37-.08,3.64,14.55.76,15.19-1.05.23-7.08-5.02-7.21-5.69-.39-1.93,4.89-9.47,6.45-9.49Z" fill="#f8d094" stroke-width="0"/><path d="M157.93,408.93c-7.25,12.21-12.73-6.97-15.95-12.91,5.37,6.18,9.49,8.59,15.95,12.91Z" fill="#f8d094" stroke-width="0"/><path d="M161.73,460.56v.76c-.49.03-2.58,1.74-3.04,2.28-.51.6-.73.71-.76.76-10.06-10.31-3.29-5.62,3.8-3.8Z" fill="#f9cba1" stroke-width="0"/><path d="M90.36,87.75l.76.76c-2.91.12-6.28.6-.76-.76Z" fill="#a5a0a2" stroke-width="0"/><path d="M388.76,348.94l6.83-17.46c1.95-2.69,2.58-7.38,3.04-10.63.5-3.61.28-7.5,1.52-11.01-10.88-8.43-6.09-17.41-8.73-18.6-.54.1-1.05,1.49-1.14,1.52-2.81.97-4.94,2.58-7.59,3.8v-4.56c1.94-1.05,8.44-3.78,9.11-4.94,1.85-12.47,3.28-31.01,20.5-26.58l2.28-17.46c-3.13-1.61-6.92-3.25-9.49-5.69-14.88-14.2-2.72-33.9-11.01-35.31,10.7-20.37,19.98-41.05,47.46-36.07,22.51,4.08,25.85,25.99,25.44,45.18-6.28-.62-1.25,19.38-17.08,29.23-14.94,9.3-18.09-4.5-20.12,23.16,3.86,3.92,3.72-3.91,6.07-.76.96,1.28-1.11,4.44,3.04,10.63,1.12,47.81-15.88,33.69-19.74,38.72-6.6,14.53-.42,51.4-25.44,32.27-1.42,1.75-3.32,3.04-4.94,4.56Z" fill="#161719" stroke-width="0"/><path d="M402.04,206.2q28.47,4.56,56.95,9.11c2.65,1.59-1.04,22.6-23.54,20.5-1.5-.14-26.09-6.9-27.33-7.59-8.47-4.7-8.07-13.6-6.07-22.02Z" fill="#6f6f70" stroke-width="0"/><path d="M442.67,171.27c21.22,5.44,21.57,28.86,19.36,29.61-14.06-4.56-47.92-6.15-53.53-7.59,5.52-17.41,16.32-23.33,34.17-22.02Z" fill="#6f6f70" stroke-width="0"/><path d="M442.67,171.27c-17.85-1.31-28.65,4.61-34.17,22.02-.72-.18-1.5-.86-2.28-1.14,4.29-16.65,20.16-25.05,36.45-20.88Z" fill="#95999b" stroke-width="0"/><path d="M410.4,310.98c10.57-5.28.35,16.07-.38,29.23-.32,3.6-7.33-.06-7.59-1.52-.26-1.42,6.68-27.07,7.97-27.71Z" fill="#393d3e" stroke-width="0"/><path d="M426.34,244.16c1.45-.74-1.37,17.89-3.04,17.46l3.04-17.46Z" fill="#ab9a8d" stroke-width="0"/><path d="M76.69,386.91c8.38,13.99,17.41,32.4,31.13,41.76,20.91,14.26,50.05,6.72,58.47-.76l.76,3.8c-58.84,31.94-74.17-14.97-94.15-44.8.75-6.28.26-.38,3.8,0Z" fill="#321710" stroke-width="0"/><path d="M168.56,417.28c.42,1.24,1.47.38,1.52,1.52-21.29,14.5-39.32,16.41-62.26,4.56-12.07-11.13-20.57-25.49-28.85-39.48,27.21,36.7,40.24,60.09,89.6,33.41Z" fill="#372f22" stroke-width="0"/><path d="M71.37,374c2.99,2.95,5.46,6.26,7.59,9.87,8.28,13.99,16.78,28.35,28.85,39.48-1.19-.61-7.37-4.58-7.59-4.18l7.59,9.49c-13.72-9.36-22.75-27.77-31.13-41.76-4.29-7.17-10.14-12.46-5.32-12.91Z" fill="#c27023" stroke-width="0"/><path d="M107.82,423.35c22.94,11.85,40.97,9.95,62.26-4.56.06,1.37-.42,2.52-.76,3.8-.64,2.38-1.01,3.51-3.04,5.32-8.42,7.48-37.56,15.02-58.47.76l-7.59-9.49c.23-.4,6.4,3.56,7.59,4.18Z" fill="#d88b32" stroke-width="0"/><path d="M261.95,468.15c.42,2.43,2.13,5.09,3.8,6.83q.38,11.77.76,23.54c-2.3,1.21-6.43,5.15-6.83,5.32-1.54.63-30.99,6-32.65,6.07-.57.02-8.75-1.13-11.39-1.52v-9.87c6.6-5.97-2.88-5.8,0-9.87,4.62-1.3,4.39-7.14,4.56-7.59,8.74,3.25,51.64,24.29,31.51,9.11-5.1-3.84-24.13-14.23-30.75-13.67.85-2.36.88-3.4,3.42-4.56,8.86.07,29.74-5.32,34.17-5.32,2.45,0,2.33,1.3,3.42,1.52Z" fill="#fdfdfd" stroke-width="0"/><path d="M220.19,481.06c.34-.93.42-3.61.76-4.56,6.62-.56,25.66,9.82,30.75,13.67,20.13,15.18-22.77-5.86-31.51-9.11Z" fill="#f6deb3" stroke-width="0"/><path d="M52.39,314.02c25.71,15.56,9.52,7.02,19.74,25.44-.43,7.92-3.02,28.74-.76,34.55-4.83.45,1.02,5.74,5.32,12.91-3.54-.38-3.05-6.28-3.8,0-1.88-2.8-3.23-5.96-5.69-8.35-37.27,20.99-53.36-8.03-67.2-38.34,29.98,20.66,10.97,4.22,6.83-9.11-1.7-5.47-3.69-20.57-.76-18.98,16.18,32.21,8.54,14.11,9.87-3.8.31-4.19,1.72-9.25,3.04-13.29,6.38,16.11,15.87,22.14,33.41,18.98Z" fill="#161719" stroke-width="0"/><path d="M292.33,82.43c10.57,5.61,20.28,13.82,27.33,23.54,8.65,11.92,14,26.64,18.22,40.62,4.24,1.23,8.27,2.82,12.15,4.94,2.98,1.63,6.47,2.92,9.49,4.56q14.62,9.87,29.23,19.74c-1.34-.27-5.09-2.61-6.07-1.14-.18.26,3.36,2.33,3.04,4.18-14.26-11.82.41,13.8-5.32,16.7-5.77-25.71-21.17-33.94-41.38-47.84-.85.55,2.29,13.18,2.66,15.19l-3.8,1.52c-4.92-21.55-24.01-66.75-46.32-74.41-4.65-8.99-9.43,6.05-14.43,11.77-9.12,10.44-13.61,11.05-24.3,1.14-5.21-4.83-6.97-9.59-7.59-10.25-14.63-15.41-44,10.87-53.91,22.78-26.09,31.35-45,86.04-7.59,116.55l-.76,3.8c-46.87-42.06-16.96-107.89,22.78-142.75h.76c-1.78,2.16-2.45,5.68,1.14,5.32.29-.03,3.06-3.08,4.56-3.8,29.74-14.37,32.47-3.36,34.17-5.32,1.1-1.26-.76-4.28,1.9-3.8,3.82,5.54,10.93,20.63,19.36,18.98.64-.13,1.77-2.2,1.9-2.28,7.22-4.64,12.97-18.2,19.74-25.06-1.27,5.52-2.34,14.26,3.04,5.32Z" fill="#281a16" stroke-width="0"/><path d="M196.66,72.56c0,.44,1.99,5.67,1.52,8.73l1.14,1.14c1.25-1,2.77-1.56,4.18-2.28,2.87,1.31,1.23,2.71,0,4.56-2.36,3.55-15.78,12.35-22.4,26.58-11.56-4.2-60.92,21.01-67.2,27.33-6.76-2.18,1.1-9.07-7.59-3.04,2.49-3.57,4.68-7.35,7.59-10.63.84-.39.6,2.13,1.9,1.52,1.6-.76,15.78-12.84,30.75-17.08l-18.98-7.97-.76-3.04c3.6,2.35,24.67,10.23,27.71,8.35.44-3.31-.85-6.52-.38-9.87.31-2.23,4.07-8.32,5.69-9.11,8.52-4.16,10.93,6.86,15.19,9.87,1.21.85,6.2,1.51,6.45,1.9.22.33-3.15,8.91,1.52,4.94.32-.28,3.23-6.43,3.8-7.59,3.91-8.02,6.85-17.73,4.56-26.58,3.75,1.97-1.71-3.9,1.9-3.04,1.24.3,2.7,4.32,3.42,5.32Z" fill="#161719" stroke-width="0"/><path d="M389.52,175.82c-.16-.98,2.2-.97,3.8-.76.73.1,4.05.99,4.94,1.52-9.65-29.82-31.87-42.17-55.05-61.12,9.8,5.92,20.79,11.05,29.99,17.84,13.88,10.24,31.65,32.52,20.12,14.81-18.52-28.45-62.36-49.93-65.3-42.52,11.42,19.11,23.27,26.62,41.38,38.34l11.39,11.39c-24.74-17.41-39.55-24.3-55.81-51.63h10.25c1.71-9.71,3.25-9.34,3.42-9.87l6.07.76c-2.69,1.43-6.18,1.34-6.45,1.52-1.24.8.58,1.8.38,2.28-2.28,5.45-.88,6.9,5.69,7.59,16.85,1.78,38.09-33.47,24.68-52.77-8.84-12.72-24.19-9.48-35.69-2.66,3.3-2.45,9.24-6.52,14.05-7.59,3.09-.69,10.96,1.98,10.25-1.52,29.19,5.75,24.48,52.42-5.32,67.96q24.3,6.83,48.59,13.67c-11.77,1.69-23.04-2.26-34.17-5.32,7,6.05,14.45,11.94,20.5,18.98,2.25,2.61,21.15,28.19,17.08,28.47l-16.7-12.15c16.82,26.72,19.52,26.15,1.9,22.78Z" fill="#321710" stroke-width="0"/><path d="M127.56,101.41l18.98,7.97c-14.97,4.25-29.15,16.32-30.75,17.08-1.29.62-1.06-1.91-1.9-1.52-13.16,6.17-26.26,12.29-39.86,17.46l26.2-26.2c-12.63,4.06-43.65,23.49-15.57.38,3.14-2.58,6.78-4.72,10.25-6.83,10.37-4.14,20.83-10.93,32.65-8.35Z" fill="#603023" stroke-width="0"/><path d="M180.71,46.75l3.04-1.52c1.53,1.66,3.2,3.23,4.18,5.32,20.06-5.12,46.27-5.43,59.6,13.29,7.2,10.11-5.89-4.21-14.05-7.97-16.98-7.83-46.25-6.24-45.94-.38,9.77,12.21,5.93,6.87,15.95,4.18.01,7.84-6.96,3.38-6.83,12.91-.71-1-2.18-5.02-3.42-5.32-3.61-.87,1.85,5-1.9,3.04-4.12-15.92-34.01-36.19-61.12-27.33-19.6,6.4-21.41,33.01-11.01,47.84-6.28-2.77-4.42-15-9.11-9.87-7.13-44.62,30.22-49.78,57.33-39.48,4.82,1.83,18.75,11.67,13.29,5.32Z" fill="#281a16" stroke-width="0"/><path d="M385.72,178.86c23.66,19.6-2.12,15.06-3.04,16.32q3.8,23.54,7.59,47.08c-6.16-5.87-12.18-11.85-18.22-17.84.53-9.97-10.2-27.92-5.32-36.45,6.31,16.12,8.99,34.05,20.12,47.84-3.25-13.13-3.51-27.14-6.45-40.24,5.72-2.9-8.95-28.52,5.32-16.7Z" fill="#603023" stroke-width="0"/><path d="M120.73,199.36c-5.72,14.64-7.25,25.05-4.56,40.62.14.81,2.22,4.67,2.28,4.94,3.16,14.24,3.47,25.14,6.83,12.53.68-2.56.67-11.77.76-15.57,1.29-.55,2.44,1.57,2.66,1.52.8-.19,1.01-1.8,1.9-3.04.93,5.64-3.66,25.32-10.25,25.82-5.15.39-3.38-22.2-8.35-35.69-4.47,7.61-7.2,16.85-11.77,24.3-1.86.4-1.78-1.33-1.52-2.66,1.87-9.45,12.93-30.68,9.11-36.07,2.35-4.34,15.18-27.09,17.46-28.47,3.92-2.37-2.23,5.83-4.56,11.77Z" fill="#321710" stroke-width="0"/><path d="M156.41,131.79c-12.77,7.18-44.23,14.37-52.39,23.16-.3.32-2.55,5.31-3.8,7.21-6.07,9.29-10.81,19.23-12.15,30.37-.83.29-1.22,1.04-2.28.76,4.26-21.08,8.99-27.7,9.11-29.23.22-2.81-1.53-1.78-1.52-1.9.49-7.2,6.86-10.19,6.07-16.7,2.27-3.31,4.53-6.58,6.83-9.87,8.69-6.04.83.85,7.59,3.04-2.12,2.14-6.52,8.34-6.45,11.39,7.67-6.21,13.74-8.05,22.4-11.39,12.93-4.99,27.14-6.85,37.96-16.7.75.06,1.3-1.56,2.28-.38-4.18,3.81-8.68,7.44-13.67,10.25Z" fill="#281a16" stroke-width="0"/><path d="M357.63,252.51c.02.19-.44,3.34-.76,3.8-3.04-3.36-5.72-6.58-8.35-10.25l-1.14,33.79-12.15-15.19c-1.55.83-2.73,2.08-4.18,3.04l-.76-.76c5.04-3.83,4.2-28.29,6.45-35.69,2.09,0-3.66,20.48,7.21,40.62.43-22.1,4.6-44,8.73-65.68-1.25,20.46,3.66,35.78,4.94,46.32Z" fill="#321710" stroke-width="0"/><path d="M133.63,213.79c-2.02,19.74,1.73,19.27,6.07,35.69.89,3.38,2.57,6.29,3.04,9.87.16,1.22.8,13.68-2.28,10.63-.61-12.9-6.96-30.78-9.49-31.13-.62-.09-.24,1.33-.38,1.52-.89,1.24-1.1,2.85-1.9,3.04-.22.05-1.36-2.07-2.66-1.52.53-23.01-3.16-27.21,9.87-52.39,2.48-4.79,6.62-12.65,6.83-9.49-4.23,9.83-8.03,23.25-9.11,33.79Z" fill="#281a16" stroke-width="0"/><path d="M148.82,210.75c1.12,7.81,1.92,10.34,4.56,17.46.27.74.52,1.68.76,2.28-1.48,14.23,3.45,27.67,6.07,41.38.11.56,1.02,3.25,2.28,2.66-1.23.97-1.45.71-1.52.76-10.21-20.33-4.99-36.87-15.19-4.94-1.3,4.07,2.32,8.52-6.07,9.11-.57-1.04.97-5.04.76-9.49,3.08,3.05,2.44-9.41,2.28-10.63.95,7.2,5.2-10.04,5.32-11.77.72-10.48-6.58-30.91-.38-49.73.35,4.38.51,8.53,1.14,12.91Z" fill="#281a16" stroke-width="0"/><path d="M136.67,166.71c-17.5,18.51-26.55,17.31-35.69,44.8-3.58,10.76-4.7,21.71-6.83,26.58-1.36,3.1-9.17,15.3-8.35,6.45.74-8.02,15.26-43.18,17.46-55.81,3.92-4.6,2.29,3.71,2.66,3.8,3.17-3.03,5.63-6.78,8.73-9.87,10.94-10.9,24.12-19.26,34.17-31.13-.72,3.32-9.33,12.2-12.15,15.19Z" fill="#321710" stroke-width="0"/><path d="M366.74,187.97c-4.88,8.53,5.84,26.48,5.32,36.45-2.46-2.44-5.17-4.72-7.59-7.21q-.76,22.4-1.52,44.8c-2.8.96-5.8-5.39-6.07-5.69.32-.46.78-3.6.76-3.8-.22.85,1.4,3.85,1.9,3.8,4.74-.53,2-80.22-2.66-88.46,4.31,5.15,7.38,13.75,9.87,20.12Z" fill="#281a16" stroke-width="0"/><path d="M52.39,314.02c-17.54,3.15-27.03-2.87-33.41-18.98,2.7-8.24,7.03-13.96,14.05-18.98-11.33,25.47,2.44,27.73,19.36,37.96Z" fill="#603023" stroke-width="0"/><path d="M104.78,211.51c-1.58,4.87-3.07,9.61-3.04,14.81h1.52c.85-3.53,2.84-7.07,4.56-10.25,3.81,5.39-7.24,26.62-9.11,36.07-.26,1.33-.34,3.06,1.52,2.66-7.98,13.01-3.58-3.15-6.07-16.7,2.13-4.87,3.26-15.82,6.83-26.58h3.8Z" fill="#603023" stroke-width="0"/><path d="M295.36,256.31c.21,5.85,29.78,14.54,34.93,10.63l.76.76c-.6.4-1.5,2.67-1.9,3.04-1.54,1.43-4.95-.24-8.73,12.15-.71,2.32-.05,2.85-2.28,5.32-2.54,1.09-7.37,4.78-9.11,6.83-1.94-1.51-3.5,1.31-5.32,2.28.37-2.25,4.21-5.16,7.59-9.11,4.42-5.16,8.25-10.28,11.39-16.32-2.13-2.59-3.61-.34-3.8-.38-25.16-5.8-15.01-9.69-18.98,6.83-.11-.13-1.8.52-1.52-1.14,3.96-4.78.1-4.63,0-4.94-1.71-4.92-6.84-14.49-9.87-10.63.3-.47-.48-2.35.38-3.04,2,.43,5.06-1.18,6.45-2.28Z" fill="#281a16" stroke-width="0"/><path d="M147.3,149.25c-3.39,3.35-26.5,23.55-32.65,28.85-3.76,3.24-7.6,6.71-11.39,9.87-6.5,5.43-14.54,9.5-19.36,16.7-.61-.16,1.65-10.17,1.9-11.39,1.05.28,1.45-.47,2.28-.76,1.68-.58,2.54-1.1,3.8-2.28,1.19-.15,2.88.23,3.42,0,2.74-1.18,20.69-20.32,45.94-37.96,7.11-4.97,12.15-9.03,6.07-3.04Z" fill="#321710" stroke-width="0"/><path d="M393.31,175.07c-1.6-.21-3.95-.22-3.8.76-.24-.05-.52.05-.76,0q-14.62-9.87-29.23-19.74c-3.02-1.63-6.51-2.93-9.49-4.56-8.61-7.59,11.28.36,21.64,6.07,5.63,3.11,18.92,11.87,21.64,17.46Z" fill="#7d3f31" stroke-width="0"/><path d="M110.1,80.91c4.69-5.13,2.83,7.1,9.11,9.87,1.39,1.98,5.72,6.37,7.59,7.59l.76,3.04c-11.82-2.58-22.28,4.22-32.65,8.35,15.1-9.19,25.52-9.63,25.82-11.01-3.89-9.87-20.22-10.62-29.61-10.25l-.76-.76c4.22-1.04,9.25-.03,13.29-2.28-22.36-1.64-28.99-3.2-1.52-2.28v-1.52l-4.94-1.9c13.64,2.68,14.24,9.47,12.91,1.14Z" fill="#472419" stroke-width="0"/><path d="M170.08,433.22c-1.03.56-.11,4.43,0,6.83.38,8.29-1.25,10.32,7.97,12.91,6.42,1.8,13.79-.76,11.01,3.8-.51,0-1.01,0-1.52,0-.16,0,.94-.5-3.04-.76-4.72-.31-9.61-1.38-14.05-3.04l-1.14,1.14c3.58,16,15.39,13.06,28.09,12.53,1.88-.08,4.02-.3,5.32,1.52-10,2.03-16.07,1.81-25.82-.76-3.69-.98-13.29-6.19-15.19-6.07v-.76c1.2.31,8.71,2.63,9.11,1.9-5.03-9.49-2.41-20.45-3.04-30.75l.38-1.52c2.35,1.77,1.77,2.91,1.9,3.04Z" fill="#5b230f" stroke-width="0"/><path d="M171.6,424.87c.82,2.86-.89,12.03,15.19,9.87-.84,6.18,18.18-7.43,19.36-7.59.44-.06,7.19,1.22,8.73,1.52,2.38.46,4.75,1,7.21.76l.38,1.52c-20.95-6.28-21.56,5.06-35.69,7.59-8.52,1.53-10.94.75-16.7-5.32-.12-.13.45-1.27-1.9-3.04l-.38,1.52c-.21.1-.57-.1-.76,0l-.76-3.8c2.03-1.81,2.4-2.93,3.04-5.32.64-.16,2.23,2.12,2.28,2.28Z" fill="#291f13" stroke-width="0"/><path d="M321.18,400.57c.22.72.71,1.96,1.52,2.28-.26,6.44-2.95,10.07-3.04,10.63-.22-1.28-2.18-2.15-2.28-2.28-.97-1.22-2.14-2.6-3.04-3.8-1.9-2.52-3.21-5.9-5.32-8.35-.33-2.33,2-2.1,3.04-3.04,3.35,1.76,5.29,6.08,9.11,4.56Z" fill="#e39f36" stroke-width="0"/><path d="M93.39,162.16l-11.77,10.63-1.14-1.14c7.02-8.24,12.87-17.3,18.98-26.2.79,6.52-5.58,9.51-6.07,16.7Z" fill="#603023" stroke-width="0"/><path d="M114.65,182.66c-3.1,3.09-5.56,6.84-8.73,9.87-.37-.08,1.26-8.39-2.66-3.8v-.76c3.79-3.17,7.63-6.63,11.39-9.87,3.82,2.27-1.79,3.41,0,4.56Z" fill="#7d3f31" stroke-width="0"/><path d="M329.53,53.58c-9.28,8.55-15.66,19.79-15.95,32.65-2.26-1.97-14.04-9.12-16.32-9.11-4.63.02-4.72,4.95-4.94,5.32-5.38,8.95-4.3.2-3.04-5.32,9.09-9.2,19.7-11.98,20.5-12.91.18-.21-.49-2.16.76-3.8,2.56.05,3.75,2.3,8.35-.76,2.99,3.3,5.72-3.57,7.59-6.07.56-.74.73-.72.76-.76l2.28.76Z" fill="#161719" stroke-width="0"/><path d="M380.4,195.57c2.94,13.11,3.21,27.11,6.45,40.24-11.13-13.78-13.81-31.71-20.12-47.84-2.49-6.37-5.56-14.97-9.87-20.12,4.66,8.23,7.4,87.93,2.66,88.46-.49.05-2.12-2.95-1.9-3.8-1.28-10.53-6.19-25.86-4.94-46.32-4.13,21.68-8.31,43.57-8.73,65.68-10.88-20.15-5.13-40.62-7.21-40.62-2.25,7.4-1.42,31.86-6.45,35.69-5.15,3.91-34.71-4.78-34.93-10.63.67-.53.72-.73.76-.76,6.17-1.8,12.68-2.37,18.22-5.69-10.74-1.69,5.87-2.28,11.01-7.21,3.87-3.72-9.98,3.45-13.29,0,6.1-5.51,11.61-10.96,16.7-17.46,4.35-5.55,7.85-10.11,10.63-16.7,7.83-18.53,5.7-26.83,2.28-45.56-.37-2.01-3.51-14.64-2.66-15.19,20.21,13.9,35.61,22.13,41.38,47.84Z" fill="#9c523d" stroke-width="0"/><path d="M231.58,276.05c1.94,2.9,3.08,6.7,5.32,9.49l-1.14,1.14c-12.53-7.99-25.02-16.9-38.72-22.78-4.33-1.86-12.33-2.98-12.53-5.32,5.99-2.54,19.45-4.94,26.2-4.56,2.32.61,18.92,19.09,20.88,22.02Z" fill="#2ca066" stroke-width="0"/><path d="M255.88,339.07c.03.25-.04.52,0,.76-.97-.22-.72,1.69-1.14,1.52-1.76-.71-1.74-20.2-11.77-35.69-6.64-10.25-19.25-18.88-29.61-25.06-11.8-7.04-23.1-12.69-36.83-15.19-1.99-2.21,2.2-2.85,3.42-3.8,1.8-1.24,5.3.1,7.21.76,12.42,4.31,49.29,24.38,56.57,34.55,4.92,6.87,11.55,29.41,12.91,37.96.03.21-1.16.35-.76,4.18Z" fill="#e0b14a" stroke-width="0"/><path d="M231.58,276.05c1.2-.91,2.2-.67,2.28-.76,5.52,2.61,13.71,6.65,19.74,5.32.12,1.82-.72,1.38-2.28,2.28-.93-.83-9.52-1.48-11.77-3.8-1.31-.23-1.32.77-1.14,1.9.26,1.63,11.96,23.3,14.43,29.61,3.1,7.97,2.61,13.83,3.04,14.43.55.77,3.88.72,4.56-.76.51-1.1-3.12-21.04-3.8-23.92l3.04-.76c2.49,13.63,2.34,22.93,3.04,23.92.66.94,3.4-.34,5.32,1.14-1.78,7.28-1.22,3.42-6.07,7.59-2.56,2.2-5.21,2.82-6.07,6.83-.4-3.82.79-3.97.76-4.18-1.36-8.56-7.99-31.09-12.91-37.96-7.28-10.17-44.15-30.24-56.57-34.55-1.91-.66-5.41-2-7.21-.76,1.48-1.15,2.84-2.31,4.56-3.04.2,2.34,8.2,3.46,12.53,5.32,13.7,5.87,26.2,14.79,38.72,22.78l1.14-1.14c-2.23-2.79-3.37-6.59-5.32-9.49Z" fill="#122618" stroke-width="0"/><path d="M173.88,260.11c2.68,12.28-5.68,9.92-11.39,14.43-1.26.59-2.17-2.1-2.28-2.66-2.63-13.71-7.56-27.15-6.07-41.38,2.17,5.41,14.28,28.91,19.74,29.61Z" fill="#603023" stroke-width="0"/><path d="M268.03,297.31c.47,2.71,2.22,16.2,2.28,17.84.28,8.33-1.92,32.59-12.91,29.61,5.47-.31,6.68,3.74,8.73,4.18,3.42.72,2.52-1.44,2.66-1.52.2-.11.65.12.76,0,.1-.11,1.42.28,1.52-.38-2.26-4.78-2.17-10.33.38-14.81,4.43,11.92-4.49,19.66,4.18,19.74,1.71.02,2.72-1.73,3.04,0-10.18,2.7-10.55-4.19-18.98-3.42,0,.15,1.9,1.64,2.28,1.9v3.04c-1.91-1.71-4.16-2.45-4.94-5.32-1.3,4.99.34,5.05.38,5.32.36,2.42.67,4.52,1.52,6.83-3.45-4.74-2.27-8.96-5.32-9.87-.8-12.17-5.18-32.36-12.15-42.52l1.52-2.28c10.03,15.49,10.01,34.97,11.77,35.69.42.17.17-1.74,1.14-1.52,1.96,11.19,18-13.78,6.07-7.59,4.85-4.17,4.29-.31,6.07-7.59,1.44-5.88-1.9-37.5-3.04-39.1-.41-.57-7.65-1.35-9.11-1.14-2.74-1.29,4.82-2.3,5.32-2.28,1.62.08,3.4-.59,4.56,1.14.16,4.77,1.48,9.38,2.28,14.05Z" fill="#212015" stroke-width="0"/><path d="M251.32,282.88c.78.69,4.76,15.14,5.32,17.46.68,2.88,4.3,22.82,3.8,23.92-.68,1.47-4.01,1.53-4.56.76-.43-.6.07-6.46-3.04-14.43-2.46-6.32-14.16-27.99-14.43-29.61-.18-1.13-.17-2.13,1.14-1.9,2.25,2.32,10.84,2.96,11.77,3.8Z" fill="#2ca066" stroke-width="0"/><path d="M283.97,283.64c.91,10.97-2.44,21.47-3.8,32.27-2.64-1.68-2.37-6.79-7.59-7.21l-3.04-23.54,12.53-3.8c2.86-.58,1.65,2.1,1.9,2.28Z" fill="#2ca066" stroke-width="0"/><path d="M292.33,307.18c-.37,2.36-.88,5.3-1.52,7.59-9.69,7.95-16.25,2.2-18.22,9.87-1.36-5.05-.86-10.96-1.52-15.95.5.02,1.02-.04,1.52,0,5.22.43,4.96,5.53,7.59,7.21,1.36-10.8,4.71-21.29,3.8-32.27,5.72,4.07,1.36-3.91,3.8-6.83-.21,6.81.51,14.22,0,20.88-.88,11.51-8.44,19.72,4.56,9.49Z" fill="#092d24" stroke-width="0"/><path d="M268.03,324.65c-1.92-1.47-4.65-.19-5.32-1.14-.69-.99-.55-10.29-3.04-23.92-.94-5.16-2.8-10.05-3.8-15.19,1.46-.21,8.7.57,9.11,1.14,1.14,1.61,4.48,33.23,3.04,39.1Z" fill="#1c925f" stroke-width="0"/><path d="M293.85,287.44c.41,6.68-.5,13.16-1.52,19.74-12.99,10.22-5.43,2.02-4.56-9.49.51-6.66-.21-14.07,0-20.88.06-2.06.45-3.38.76-5.32,4.63,4.5,3.58,10.3,5.32,15.95Z" fill="#2ca066" stroke-width="0"/><path d="M298.4,272.25c.1.3,3.96.15,0,4.94-.28,1.65,1.41,1.01,1.52,1.14,1.53,1.79,6.55,4.77,9.11,5.32-.09.17-.75,3.6-.76,3.8-3.13-.47-7.78-4.02-10.63-6.07-.1-.07.42-1.23-1.14-2.28-2.68.25.74,19.43-2.66,8.35-1.73-5.65-.69-11.45-5.32-15.95.23-1.45-.55-3.06.76-3.04.6.57,9.94,6.95,9.11,3.8Z" fill="#13211c" stroke-width="0"/><path d="M296.12,255.55c3.82-2.87,6.97-6.69,11.77-7.59,1.64-5.58,3.93-5.09,4.18-5.32,3.31,3.45,17.16-3.72,13.29,0-5.14,4.93-21.75,5.52-11.01,7.21-5.54,3.33-12.05,3.9-18.22,5.69Z" fill="#281a16" stroke-width="0"/><path d="M339.4,208.47c-2.78,6.59-6.28,11.16-10.63,16.7l-2.28-3.04c1.81-.92,10.55-16.36,11.39-18.98,4.89,1.36-.66,3.84,1.52,5.32Z" fill="#281a16" stroke-width="0"/><path d="M268.79,285.16c.46,2.1,1.13,8.89,1.52,12.15h-2.28c-.8-4.67-2.11-9.27-2.28-14.05-1.15-1.72-2.94-1.06-4.56-1.14-7.48-.87,1.61-5.89,5.69-3.8.73.37,1.6,5.46,1.9,6.83Z" fill="#c27023" stroke-width="0"/><path d="M298.4,272.25c.82,3.16-8.51-3.22-9.11-3.8-4.34-4.17-2.92-3.48-.76-6.83,3.04-3.86,8.17,5.71,9.87,10.63Z" fill="#603023" stroke-width="0"/><path d="M326.49,222.14l2.28,3.04c-5.09,6.5-10.6,11.95-16.7,17.46-.25.23-2.53-.26-4.18,5.32-4.8.9-7.95,4.72-11.77,7.59-.04.03-.09.23-.76.76-1.39,1.09-4.46,2.71-6.45,2.28-.86.69-.08,2.57-.38,3.04-2.17,3.35-3.58,2.67.76,6.83-1.31-.02-.53,1.58-.76,3.04-.31,1.93-.69,3.25-.76,5.32-2.44,2.92,1.92,10.9-3.8,6.83-.24-.17.96-2.86-1.9-2.28l-12.53,3.8h-.76c-.3-1.38-1.17-6.46-1.9-6.83-4.08-2.1-13.17,2.92-5.69,3.8-.5-.03-8.05.98-5.32,2.28,1,5.13,2.85,10.03,3.8,15.19l-3.04.76c-.55-2.33-4.54-16.77-5.32-17.46,1.55-.9,2.4-.45,2.28-2.28-.25-3.9-14.38-6.75-17.84-6.83-4.44-.11-1.5,1.04-1.9,1.52-.08.09-1.08-.15-2.28.76-1.96-2.93-18.56-21.41-20.88-22.02-6.75-.38-20.21,2.02-26.2,4.56-1.72.73-3.08,1.89-4.56,3.04-1.22.95-5.4,1.59-3.42,3.8,13.73,2.5,25.02,8.14,36.83,15.19l-1.52,3.8c-37.62-22.13-38.23-8.77-49.35-4.56-1.73.66-4.7,1.1-3.8-1.52.46-.38,1.84-2.69,2.28-3.04.07-.05.29.21,1.52-.76,5.71-4.51,14.07-2.14,11.39-14.43,48.68-17.89,5.51-.49-5.69-22.78,6.24,9.96,30.75,11.96,30.75,10.25-5.46-3.99-10.85-7.2-15.95-11.77l.76-3.8c6.16,2.15,30.37-.34,36.45-3.04.22-.1.57.1.76,0,5.62,8.21,9.5,17.56,17.08,24.3,6.2,4.4,11.96,4.69,15.19,6.07,1.65.71,10.79,14.25,32.27-1.52,12.22-8.97,15.01-24.53,25.06-35.69,3.49,1.08,13.21,1.4,15.95,0Z" fill="#161719" stroke-width="0"/><path d="M253.6,280.61c-6.03,1.33-14.22-2.71-19.74-5.32.4-.48-2.54-1.63,1.9-1.52,3.46.08,17.59,2.93,17.84,6.83Z" fill="#c27023" stroke-width="0"/><path d="M281.32,270.74c6.36.67-2.01,14.62-6.45,3.42,1.15-.42,6.09-3.45,6.45-3.42Z" fill="#603023" stroke-width="0"/><path d="M272.58,308.7c-.5-.04-1.01.02-1.52,0-.48-3.58-.32-7.71-.76-11.39-.39-3.26-1.06-10.05-1.52-12.15h.76l3.04,23.54Z" fill="#446d2b" stroke-width="0"/><path d="M324.98,103.69c16.26,27.33,31.07,34.22,55.81,51.63l-11.39-11.39c-18.11-11.72-29.96-19.23-41.38-38.34,2.94-7.41,46.78,14.07,65.3,42.52,11.53,17.72-6.25-4.56-20.12-14.81-9.21-6.8-20.19-11.92-29.99-17.84,23.18,18.96,45.4,31.31,55.05,61.12-.89-.53-4.21-1.42-4.94-1.52-2.72-5.6-16.01-14.36-21.64-17.46-10.36-5.72-30.25-13.66-21.64-6.07-3.88-2.12-7.91-3.71-12.15-4.94-4.22-13.98-9.57-28.7-18.22-40.62l3.04-5.32c.07.18.44-.06,2.28,3.04Z" fill="#9c523d" stroke-width="0"/><path d="M313.59,86.23c1.18,1.03,1.99,2.59,3.04,3.8,2.76,3.16,3.36,6.26,5.32,4.56.07,2.3-.88,2.66-.76,3.42.69.73,1.15,1.74,1.52,2.66l-3.04,5.32c-7.05-9.72-16.77-17.93-27.33-23.54.22-.36.31-5.3,4.94-5.32,2.29,0,14.06,7.14,16.32,9.11Z" fill="#7d3f31" stroke-width="0"/><path d="M245.25,80.15c1.15,1.74,1.91,3.68,3.04,5.32-2.66-.48-.8,2.54-1.9,3.8-1.7,1.96-4.43-9.06-34.17,5.32-1.49.72-4.26,3.77-4.56,3.8-3.59.37-2.92-3.16-1.14-5.32,3.09-3.74,8.85-4.04,12.53-6.83,7.04-1.73,13.97-4.85,20.88-6.83,1.95-.56.42-2.5,5.32.76Z" fill="#161719" stroke-width="0"/><path d="M239.94,79.39c-6.91,1.98-13.84,5.1-20.88,6.83-3.68,2.8-9.44,3.09-12.53,6.83h-.76c-3.89.31,6.65-7.49,9.49-9.11,5-2.86,10.73-5.03,16.32-6.45-6.78-2.85-15.01.3-21.26,3.42,11.32-9.92,18.13-10.64,29.61-1.52Z" fill="#603023" stroke-width="0"/><path d="M339.4,208.47c-2.18-1.48,3.37-3.95-1.52-5.32,1.77-5.5,2.25-12.43,2.28-18.22.04-8.38-.64-11.16-2.28-18.98-.1-.45.1-1.07,0-1.52l3.8-1.52c3.42,18.72,5.55,27.03-2.28,45.56Z" fill="#321710" stroke-width="0"/><path d="M182.99,104.45c-4.67,3.98-1.3-4.61-1.52-4.94-.25-.39-5.25-1.04-6.45-1.9-4.26-3.01-6.67-14.03-15.19-9.87-1.63.79-5.38,6.88-5.69,9.11h-1.52c-28.53,1.3-27.79-34.78-12.53-39.48,18.14-5.58,45.79,7.8,42.9,42.9-.09,1.14-2.7,4.85,0,4.18Z" fill="#472419" stroke-width="0"/><path d="M191.34,70.28c2.29,8.85-.65,18.56-4.56,26.58-3.17-.44,1.4-6.42,0-16.32-4.52-31.92-70.2-46.74-65.3-4.56,1.54,13.21,19.14,28.93,31.13,20.88h1.52c-.47,3.35.82,6.56.38,9.87-3.04,1.88-24.11-6-27.71-8.35-1.87-1.22-6.21-5.62-7.59-7.59-10.4-14.82-8.59-41.43,11.01-47.84,27.11-8.86,57,11.41,61.12,27.33Z" fill="#e0b14a" stroke-width="0"/><path d="M186.79,96.86c-.57,1.16-3.47,7.32-3.8,7.59-2.7.68-.09-3.04,0-4.18,2.89-35.1-24.76-48.48-42.9-42.9-15.27,4.7-16,40.79,12.53,39.48-12,8.05-29.6-7.67-31.13-20.88-4.9-42.18,60.78-27.36,65.3,4.56,1.4,9.9-3.17,15.89,0,16.32Z" fill="#da7529" stroke-width="0"/><path d="M267.27,29.28c-2.21,2.47-2.88,5.72-1.9,9.87,10.47-10.39,28.79-23.96,42.9-26.58-5.31,5.36-10.71,10.49-15.95,15.95-2.27,2.36-4.63,4.31-6.83,6.83-2.86,3.27-5.59,5.04-3.8,6.83-.75.22-6.2,3.03-6.07,3.42,17.98-3.41,39.89-9.46,56.19,3.04-2,1.34-3.1,2.2-4.56,4.18-.03.04-.2.02-.76.76-9.72-5.53-37.99-3.54-43.66,0-4.71,2.94,8.8-.6,11.39-.76,9.3-.56,18.81-.04,27.71,2.66.29.39-2.74,3.98-3.04,4.18-4.61,3.06-5.79.81-8.35.76-12.95-.25-21.36-.69-33.41,7.97,10.85-2.77,21.3-6.6,32.65-4.18-.8.93-11.41,3.71-20.5,12.91-6.78,6.86-12.52,20.41-19.74,25.06-32.45-32.19-25.18-53.01-67.2-34.93,3.75-5.39,21.42-13.06,1.14-7.59-10.02,2.7-6.18,8.03-15.95-4.18-.31-5.86,28.96-7.45,45.94.38,8.16,3.76,21.25,18.08,14.05,7.97-13.34-18.72-39.54-18.41-59.6-13.29-.97-2.08-2.65-3.66-4.18-5.32-1.33-1.45-2.57-4.74-5.32-5.69l1.14-1.9c21.73-2.43,38.62-1.19,59.6,4.94-17.88-8.6-27.25-9.45-46.32-8.73,1.9-3.51-2.61-1.63-7.97-3.8-5.03-2.03-10.05-5.56-15.19-7.59-5.6-2.22-14.91-3.37-15.57-6.07,6.15-.78,16.28.23,22.78.76-4.62,1.66,15.68,6.74,20.12,7.59,3.52.67,20.58,2.93,22.78,3.04,1.27.06,1.27-.39,1.14-1.52,6.93,2.02,13.73,3.93,20.5,6.45-9.04-11.49-34.62-22.58-23.16-21.64,7.49.61,31.31,18.16,37.21,25.06,2.65,0,1.56-5.39,1.9-6.83,2.35-10.04,5.41-14.84,10.63-23.54,11.33-5.7-.25,12-.76,23.54Z" fill="#9c523d" stroke-width="0"/><path d="M246.77,20.93c1.86-.84,1.67-1.57,3.04-1.52,2.22,3.4,4.64,7.03,7.59,9.87-.34,1.44.75,6.84-1.9,6.83-5.9-6.9-29.72-24.44-37.21-25.06-11.46-.94,14.12,10.15,23.16,21.64-6.77-2.52-13.57-4.44-20.5-6.45-12.87-3.74-19.74-5.74-33.41-7.59l7.59-3.04c11.57,1.88,31.36,9.53,31.89,7.97q-14.62-9.3-29.23-18.6c18.12-3.72,45.25,17.22,47.84,17.46,1.72.16,1.03-1.47,1.14-1.52Z" fill="#321710" stroke-width="0"/><path d="M357.63,41.43c.71,3.49-7.16.83-10.25,1.52-4.81,1.08-10.75,5.14-14.05,7.59-.53.39-3.54,2.8-3.8,3.04l-2.28-.76c1.46-1.98,2.55-2.83,4.56-4.18-16.3-12.49-38.21-6.45-56.19-3.04-.12-.38,5.32-3.19,6.07-3.42,19.72-5.9,36.96,3.83,58.47-18.22.07-.08,1.4-.37,1.52-1.52,14.01,1.67-9.39,16.02-9.11,18.6.79,7.32,10.48-2.49,25.06.38Z" fill="#281a16" stroke-width="0"/><path d="M195.14,15.61l-7.59,3.04c-3.58-.49-7-1.22-10.63-1.52-6.5-.53-16.63-1.54-22.78-.76-11.04,1.41-3.41,4.28,7.59,11.39l.76,7.59c-5.38-3.45-22.52-9.92-19.74-18.6,2.14-6.68,44.56-2.41,52.39-1.14Z" fill="#281a16" stroke-width="0"/><path d="M192.86,33.84c19.06-.72,28.44.13,46.32,8.73-20.99-6.13-37.87-7.37-59.6-4.94l-1.14,1.9c2.74.96,3.98,4.25,5.32,5.69l-3.04,1.52c-1.83-2.12-14.63-9.08-18.22-11.39l-.76-7.59c4.39,2.84,8.84,5.6,13.29,8.35,1.68.26,8.53-1.93,17.84-2.28Z" fill="#281a16" stroke-width="0"/><path d="M308.27,12.58c-14.11,2.61-32.43,16.18-42.9,26.58-.98-4.15-.31-7.4,1.9-9.87,5.82-6.5,34.59-22.17,45.18-21.26.13,1.63-3.13,3.5-4.18,4.56Z" fill="#321710" stroke-width="0"/><path d="M268.03,5.74c-5.22,8.7-8.28,13.5-10.63,23.54-2.95-2.84-5.38-6.47-7.59-9.87-5.34-8.19-1.09-1.99.76-5.69,1.33-2.66-1.48-2.51-1.52-2.66-.43-1.54-3.63-10.04-2.66-10.63,4.17-2.54,10.6,6.54,11.39,18.22,2.39-4.58,5.35-10.44,10.25-12.91Z" fill="#603023" stroke-width="0"/><path d="M341.68,22.45c-.12,1.15-1.44,1.44-1.52,1.52q-27.33,5.69-54.67,11.39c2.2-2.52,4.57-4.47,6.83-6.83,13.12-2.69,37-7.54,49.35-6.07Z" fill="#472419" stroke-width="0"/><path d="M249.05,11.06c.04.15,2.85,0,1.52,2.66-1.85,3.7-6.1-2.5-.76,5.69-1.36-.05-1.18.68-3.04,1.52-16.03-15.57-17.71-29.71,2.28-9.87Z" fill="#603023" stroke-width="0"/><path d="M269.55,102.17c-.12.08-1.26,2.15-1.9,2.28-8.43,1.65-15.54-13.44-19.36-18.98-1.13-1.64-1.89-3.57-3.04-5.32-15.18-23.06-23.83-9.12-41.76,0-1.41.72-2.93,1.28-4.18,2.28l-1.14-1.14c.48-3.07-1.51-8.29-1.52-8.73-.12-9.53,6.85-5.06,6.83-12.91,20.29-5.46,2.61,2.2-1.14,7.59,42.01-18.09,34.75,2.74,67.2,34.93Z" fill="#603023" stroke-width="0"/><path d="M340.16,23.97c-21.5,22.05-38.75,12.32-58.47,18.22-1.79-1.79.93-3.56,3.8-6.83q27.33-5.69,54.67-11.39Z" fill="#9c523d" stroke-width="0"/><path d="M154.14,16.37c.66,2.7,9.96,3.86,15.57,6.07,5.13,2.03,10.15,5.56,15.19,7.59,5.37,2.16,9.88.28,7.97,3.8-9.31.35-16.16,2.54-17.84,2.28-4.45-2.75-8.9-5.52-13.29-8.35-11.01-7.11-18.63-9.98-7.59-11.39Z" fill="#603023" stroke-width="0"/><path d="M187.54,18.65c13.67,1.86,20.54,3.85,33.41,7.59.13,1.13.13,1.58-1.14,1.52-2.2-.11-19.26-2.36-22.78-3.04-4.44-.85-24.74-5.94-20.12-7.59,3.63.29,7.05,1.03,10.63,1.52Z" fill="#9c523d" stroke-width="0"/><path d="M326.49,53.58c-1.88,2.5-4.6,9.38-7.59,6.07.3-.2,3.32-3.79,3.04-4.18-8.91-2.7-18.41-3.22-27.71-2.66-2.59.16-16.1,3.7-11.39.76,5.67-3.54,33.94-5.53,43.66,0Z" fill="#281a16" stroke-width="0"/><path d="M310.55,60.41c-1.25,1.63-.58,3.59-.76,3.8-11.35-2.43-21.8,1.41-32.65,4.18,12.05-8.66,20.46-8.23,33.41-7.97Z" fill="#281a16" stroke-width="0"/><path d="M245.25,80.15c-4.9-3.26-3.37-1.32-5.32-.76-11.49-9.13-18.29-8.4-29.61,1.52-2.37,1.18-4.29,3.05-6.83,3.8,1.23-1.85,2.87-3.24,0-4.56,17.94-9.12,26.58-23.06,41.76,0Z" fill="#281a16" stroke-width="0"/><path d="M338.64,93.82c-.17.54-1.71.16-3.42,9.87h-10.25c-1.84-3.09-2.21-2.86-2.28-3.04-.37-.92-.83-1.93-1.52-2.66-.12-.75.83-1.12.76-3.42-.25-8.42.81-13.42,5.32-20.5,8.12-4.22-.76,5.14-.76,5.69,0,.3,3.88,4.02,4.18,4.18,9.39,5.13,13.46-7.24,7.97,9.87Z" fill="#161719" stroke-width="0"/><path d="M310.55,421.83l-.76,3.04c-1.3,1.07-3.99,1.35-5.32,3.42.31,7.15-3.01,19.56-6.83,25.44-.24.38-3.07,3.76-3.8,4.56-.55.6-6.8,4.04-5.32,5.32-.79.55-3.45,4.26-4.56,5.32-1.31,1.25-4.84,1.54-3.04,3.8-4.1-.72-8.07-1.18-12.15-2.28-.56-.23-.97-.52-1.52-.76-.48-.21,1.59-1.28-8.73-4.56l-38.34,6.83c6.18-11.33,5.19-28.74,2.28-41l-.38-1.52c-2.46.24-4.83-.3-7.21-.76l.76-1.52c24.91,4.86,50.56,6.09,75.55.76,2.13-.45,18.49-5.56,19.36-6.07Z" fill="#161719" stroke-width="0"/><path d="M249.05,386.15c.9.67,1.47.56,2.28.76-1.38,1.79-3.14,2.77-4.56,4.56-3.74,4.73-6.01,8.26-10.63,12.91-.56.57-6.71,4.07-5.69,5.32,25.06,8.32,53.61,9.23,77.83-2.28,1.8,1.68,6.78,4.93,6.07,0,.9,1.19,2.07,2.58,3.04,3.8-1.25-.95-1.36.04-4.56.76-5.92,1.33-10.04,4.58-15.57,6.07-21.56,5.83-50.92,6.1-70.61-5.32-.58.65-1.06,1.15-1.9,1.52-.67.3-8.48,6.04-10.63,7.59-3.02,2.19-6.05,3.26-6.07,4.18.26.42,6.41.91,7.59,1.14l-.76,1.52c-1.54-.3-8.29-1.58-8.73-1.52-1.18.16-20.2,13.77-19.36,7.59,1.26-.17,11.24-4.25,10.63-5.69-2.48-1.12-5.02-1.03-7.59-1.9l5.32-1.52c12.84.67,28.69-12.04,28.85-13.67.29-2.86-4.42-4.17-6.07-5.32,1.96-.67,4.45-1.03,6.45,0,10.39-3.3,23.82-22.53,26.95-32.65,2.31,2.22-3.86,11-2.28,12.15Z" fill="#092d24" stroke-width="0"/><path d="M312.83,411.96c3.24,4.61,2.51,7.04-2.28,9.87-.87.52-17.23,5.62-19.36,6.07-24.99,5.34-50.64,4.1-75.55-.76-1.19-.23-7.33-.72-7.59-1.14.02-.92,3.05-1.99,6.07-4.18,14.38,4.79,29.65,4.77,44.42,7.59l-3.8-5.32c-8.62-.58-25.63-3.56-29.99-9.87.84-.37,1.32-.87,1.9-1.52,19.7,11.41,49.05,11.15,70.61,5.32,5.52-1.49,9.65-4.75,15.57-6.07Z" fill="#e39f36" stroke-width="0"/><path d="M318.9,452.97c-7.18.22-14.08,2.82-21.26.76,3.82-5.87,7.15-18.28,6.83-25.44,1.33-2.07,4.02-2.35,5.32-3.42,4.58-3.76,7.55-10.16,9.87,12.53.52,5.1-.05,10.48-.76,15.57Z" fill="#e39f36" stroke-width="0"/><path d="M266.51,469.67c12.46,12.03,22.41,15.5,39.48,12.15.46-.09,1.03.04,1.52,0-2.27,9.24,3.56.89,4.56,4.56-5.87,2.88-15.47,3.18-22.02,2.28-8.04-1.11-18.7-7.8-24.3-13.67-1.66-1.74-3.38-4.4-3.8-6.83,1.5.31,3.52-.35,4.56,1.52Z" fill="#c27023" stroke-width="0"/><path d="M309.79,470.43c-8.54,1.57-17.57,1.04-25.82-1.52,1.1-1.05,3.77-4.76,4.56-5.32.99-.7,1.89-1.33,2.66-2.28,7.97.78,19.84,2.33,26.58-1.52,1.25,5.11-4.29,8.33-7.97,10.63Z" fill="#f6deb3" stroke-width="0"/><path d="M268.79,470.43c29.01,11.92,36.68,3.48,38.34,4.56,1.77,1.14-1.77,5.26-1.14,6.83-17.07,3.35-27.02-.12-39.48-12.15h.76c.55.24.96.53,1.52.76Z" fill="#f9cba1" stroke-width="0"/><path d="M318.9,452.97c-.02.17,1.34.82.76,3.42-2.1,4.26-21.85,4.64-25.82,1.9.73-.79,3.55-4.18,3.8-4.56,7.18,2.06,14.08-.54,21.26-.76Z" fill="#c27023" stroke-width="0"/><path d="M312.07,486.37c-.99-3.66-6.82,4.69-4.56-4.56,2.55-10.39,15.28-19.83,10.63-1.14-.55,2.2-4.02,4.69-6.07,5.69Z" fill="#e39f36" stroke-width="0"/><path d="M309.79,470.43c-10.98,6.86-16.51,4.45-28.85,2.28-1.8-2.26,1.72-2.54,3.04-3.8,8.25,2.56,17.28,3.09,25.82,1.52Z" fill="#c56021" stroke-width="0"/><path d="M223.99,411.96c-.17,1.63-16.01,14.34-28.85,13.67-1.91-.1-6.45-.87-7.97-1.52-9.65-4.12,1.57-3.04,12.15-6.83,11.91-4.27,19.07-11.81,24.68-5.32Z" fill="#d88b32" stroke-width="0"/><path d="M189.82,427.15c2.57.87,5.11.78,7.59,1.9.61,1.44-9.37,5.52-10.63,5.69-16.07,2.16-14.37-7.01-15.19-9.87,4.8-12.41,2.86-2.9,18.22,2.28Z" fill="#04503d" stroke-width="0"/><path d="M135.91,189.49c-13.03,25.18-9.34,29.38-9.87,52.39-.09,3.79-.08,13-.76,15.57-3.36,12.61-3.67,1.71-6.83-12.53,1.7-4.1.68-9.2.76-13.67,8.71,5.84,2.38-11.05,4.56-23.16.11-.62,1.39-.14,1.52-.76.22-1.07-1.01-1.25-.76-2.28.06-.27,2.68-3.66,3.04-4.56.07-.18-.09-3.63,0-3.8,1.82-3.59,5.75-8.71,8.35-7.21Z" fill="#9c523d" stroke-width="0"/><path d="M119.21,231.25c-.08,4.47.94,9.57-.76,13.67-.06-.27-2.14-4.13-2.28-4.94-2.7-15.57-1.17-25.98,4.56-40.62,2.96,1.72-1.11,14.12-1.52,20.12-.26,3.87.07,7.88,0,11.77Z" fill="#7d3f31" stroke-width="0"/><path d="M100.23,162.16c1.25-1.91,3.49-6.89,3.8-7.21,8.16-8.79,39.63-15.98,52.39-23.16,5.95,6.86-46.93,30.2-56.19,30.37Z" fill="#7d3f31" stroke-width="0"/><path d="M167.8,121.92c-10.82,9.86-25.04,11.71-37.96,16.7l1.14-4.56c11.18-1.27,27.63-12.86,36.83-12.15Z" fill="#9c523d" stroke-width="0"/><path d="M139.71,249.48c-4.34-16.41-8.1-15.95-6.07-35.69,4.75.87,1.37,2.45,2.28,7.97,1.64,10.02,8.38,27.71,3.8,27.71Z" fill="#7d3f31" stroke-width="0"/><path d="M153.38,228.22c-2.63-7.12-3.44-9.66-4.56-17.46,3.76,3.06.61-.85,3.42-.76,1.83.06,4.89,16.33,1.14,18.22Z" fill="#9c523d" stroke-width="0"/><path d="M104.78,211.51h-3.8c9.14-27.49,18.18-26.29,35.69-44.8,2.06,1.29-3.44,8.68-5.32,11.01-10.07,12.55-20.86,16.18-26.58,33.79Z" fill="#7d3f31" stroke-width="0"/><path d="M148.82,151.53c-10.05,11.88-23.23,20.23-34.17,31.13-1.79-1.14,3.82-2.29,0-4.56,6.15-5.3,29.26-25.5,32.65-28.85,4.08,1.6,1.56,2.09,1.52,2.28Z" fill="#9c523d" stroke-width="0"/><path d="M163.25,470.43c10.84,14.17,14.86,24.67,35.31,21.26,6.5-1.08,10.7-8.26,17.84-6.83-.01,1.42-1.4,2.87-2.28,3.8-1.23,1.31-10.56,7.4-11.77,7.59-2.73.43-41.67-1.3-43.66-22.78,1.06-8.7,2.73-4.23,4.56-3.04Z" fill="#b67246" stroke-width="0"/><path d="M176.91,467.39c22.83,14.53,28.85,7.93,37.58,6.83,1.63-.21,2.48,1.14,4.18.76-7.82,8.71-39.18,3.89-49.73-2.28-1.33-.78-7.01-5.91-8.73-7.59-.08-.07-.37-1.4-1.52-1.52.46-.53,2.55-2.25,3.04-2.28,1.89-.12,11.49,5.1,15.19,6.07Z" fill="#8f4114" stroke-width="0"/><path d="M218.68,474.98c.51-.56,1.03-2.14,1.52-3.04l38.34-6.83c10.33,3.27,8.25,4.35,8.73,4.56h-.76c-1.03-1.87-3.06-1.21-4.56-1.52-1.09-.22-.97-1.52-3.42-1.52-4.43,0-25.31,5.39-34.17,5.32-2.54,1.15-2.57,2.19-3.42,4.56-.34.94-.42,3.63-.76,4.56-.17.45.06,6.29-4.56,7.59-.39.11-1.03-.06-1.52,0,.87-.93,2.26-2.38,2.28-3.8l-2.66-4.56c-18.3,7.95-35.26.12-50.49-9.87-1.82-1.2-3.49-5.67-4.56,3.04-.37-4.01.05-4.39,1.52-8.35,1.72,1.68,7.4,6.82,8.73,7.59,10.55,6.17,41.91,10.99,49.73,2.28Z" fill="#472419" stroke-width="0"/><path d="M297.64,281.37c-1.02,22.23-3.7,29.79,6.07,15.95,1.82-.97,3.37-3.78,5.32-2.28-4.66,5.49-8.05,15-9.11,22.02-3.36-9.28-1.09,10.81-3.8,12.91-1.16-5.73,2.74-19.21,1.9-19.74-3.83-2.4-4.63,16.57-4.18,18.98-3.86-3.51.91-9.89-3.04-12.15.2-.53-.18-1.64,0-2.28.64-2.29,1.15-5.23,1.52-7.59,1.02-6.58,1.93-13.06,1.52-19.74,3.4,11.08-.02-8.1,2.66-8.35,1.56,1.05,1.04,2.2,1.14,2.28Z" fill="#161719" stroke-width="0"/><path d="M318.9,271.5c-1.03,2.65-9.52,11.45-9.87,12.15-2.56-.54-7.58-3.53-9.11-5.32,3.98-16.52-6.18-12.64,18.98-6.83Z" fill="#2ca066" stroke-width="0"/><path d="M308.27,287.44c-.11,4.02.6.91,3.04.76-3.38,3.95-7.22,6.86-7.59,9.11-9.77,13.84-7.09,6.29-6.07-15.95,2.85,2.06,7.5,5.61,10.63,6.07Z" fill="#e0b14a" stroke-width="0"/><path d="M311.31,288.2c-2.44.15-3.15,3.26-3.04-.76,0-.19.67-3.62.76-3.8.35-.7,8.84-9.5,9.87-12.15.19.04,1.66-2.21,3.8.38-3.14,6.04-6.97,11.17-11.39,16.32Z" fill="#c27023" stroke-width="0"/><path d="M141.23,152.29c-25.24,17.64-43.2,36.78-45.94,37.96-.54.23-2.23-.15-3.42,0,10.85-10.13,31.59-34.46,46.7-38.72.74-.21,2.74-.24,2.66.76Z" fill="#7d3f31" stroke-width="0"/><path d="M222.47,430.95c2.91,12.27,3.91,29.67-2.28,41-.49.9-1.01,2.47-1.52,3.04-1.69.38-2.54-.97-4.18-.76-8.73,1.1-14.75,7.69-37.58-6.83,9.74,2.57,15.81,2.79,25.82.76,5.63-1.14,12.36-3.13,16.32-7.59-8.59,3.19-25.3,1.33-31.51-3.8.51,0,1.01,0,1.52,0,23.19-5.99.14-2.35-10.25-7.59-1.49-.75-4.45-4.62-5.69-6.07-.8-3.34,8.14,1.96,11.01,2.28,5.29.6,37.02-3.97,25.06-6.07-7.25-1.28-15.1-.15-22.4-.76,14.13-2.53,14.73-13.87,35.69-7.59Z" fill="#e39f36" stroke-width="0"/><path d="M186.79,438.54c7.3.6,15.15-.52,22.4.76,11.96,2.11-19.77,6.67-25.06,6.07-2.87-.32-11.81-5.62-11.01-2.28-.92-1.08-1.62-2.49-3.04-3.04-.11-2.4-1.03-6.27,0-6.83,5.77,6.06,8.18,6.84,16.7,5.32Z" fill="#da7529" stroke-width="0"/><path d="M184.51,456c.26,4.1,8.5,7.86,12.91,10.63-12.7.53-24.51,3.47-28.09-12.53l1.14-1.14c4.44,1.66,9.33,2.73,14.05,3.04Z" fill="#a45019" stroke-width="0"/><path d="M187.54,456.76c6.21,5.13,22.93,6.98,31.51,3.8-3.97,4.46-10.69,6.45-16.32,7.59-1.3-1.82-3.44-1.6-5.32-1.52-4.41-2.77-12.65-6.53-12.91-10.63,3.98.26,2.88.76,3.04.76Z" fill="#d88b32" stroke-width="0"/><path d="M173.12,443.09c1.24,1.46,4.21,5.32,5.69,6.07,10.39,5.25,33.44,1.6,10.25,7.59,2.78-4.56-4.59-1.99-11.01-3.8-9.22-2.59-7.59-4.61-7.97-12.91,1.42.55,2.12,1.96,3.04,3.04Z" fill="#c27023" stroke-width="0"/><path d="M299.92,369.44c1.09,9.47,3.55,17.94,7.59,26.58,1,2.13-1.11,3.22,1.52,3.04,2.1,2.45,3.41,5.83,5.32,8.35.7,4.93-4.27,1.68-6.07,0-.3-.28-3.83-5.65-4.56-6.83-1.89-3.1-3.02-6.61-4.56-9.87-.07-.15,1.97-.77-1.14-3.04-4.31.59-14.77,5.52-15.57.76,1.88-.19,13.04-2.13,13.67-3.42-.19-3.77-1.54-7.34-2.28-11.01-.37-1.84.75-4.38-1.14-6.83-9.58,13.47-25.37,13.59-34.55,0,3.91,1.32,10.19,13.04,23.92,7.59,2.77-1.1,13.31-11.94,15.95-9.87,1.2.94-.92,5.13,1.9,4.56Z" fill="#281a16" stroke-width="0"/><path d="M321.18,400.57c-3.82,1.53-5.76-2.8-9.11-4.56.66-.6,6.08-7.12,6.45-6.83.83,3.79,1.51,7.68,2.66,11.39Z" fill="#e0b14a" stroke-width="0"/><path d="M160.21,465.11c-1.46,3.96-1.89,4.34-1.52,8.35,1.99,21.48,40.93,23.21,43.66,22.78,1.21-.19,10.54-6.29,11.77-7.59.49-.06,1.13.11,1.52,0-2.88,4.07,6.6,3.9,0,9.87-.41.37-2.2,1.15-3.04,1.52-2.27,1-5.92,1.7-8.35,1.52-1.19-.09-.52-1.45-1.14-1.52-6.63-.73-13.22-1.63-19.74-3.04-12.64-2.73-23.59-10.89-18.6,2.28-2.6-1.37-1.12-1.8-1.9-2.28-1.12-.69-1.27,1.66-1.52,1.52-.53-.29-1.3-4.45-4.18-2.28.43-2.68-1.03-4.93,3.04-9.49-4.78-6.2-6.27-15.56-2.28-22.4.03-.05.25-.16.76-.76,1.15.12,1.44,1.44,1.52,1.52Z" fill="#212015" stroke-width="0"/><path d="M164.77,499.28c5.55,2.92,19.9,10.84,23.16,5.32-1.54,5.13,13.69,5.05,17.08,4.56,1.96,2.49-2.82,2.9-5.32,3.04-.03-3.3-7.52-1.44-7.97-1.52-9.8-1.68-20.39-5.21-28.85-9.87-1.91.27-9.94,18.59,1.14,12.91.1-.05,1.3-1.07,1.52-1.52,3.37.63,1.06,5.48,1.52,8.35-3.52-5.29-19.39-4.79-10.63,2.28-.31-.15-1.59-.42-2.28-.76-.92-.45-1.34-2.23-2.66-3.04-1.55-.37-1.97.7-2.66.76l-1.52-2.28c2.1-.72,4.88-1.17,6.07-3.42.65-5.96,4.4-13.69,4.56-14.43.33-1.6-.97-2.09-.76-3.42,2.88-2.18,3.65,1.99,4.18,2.28.25.14.4-2.21,1.52-1.52.78.48-.7.91,1.9,2.28Z" fill="#13211c" stroke-width="0"/><path d="M204.25,501.56c-1.96,4.57,2.03,2.2,2.28,2.28,7.04,2.24,2.87-.1,3.04,3.04-1.24.8-3.16,2.08-4.56,2.28-3.4.49-18.62.57-17.08-4.56-3.26,5.53-17.61-2.4-23.16-5.32-4.99-13.17,5.96-5,18.6-2.28,6.52,1.41,13.11,2.31,19.74,3.04.62.07-.06,1.43,1.14,1.52Z" fill="#64632c" stroke-width="0"/><path d="M167.04,520.54c.99,6.26,1.06,3.26,5.32,6.83-.76.74-.29,2.23-1.9,2.28-2.07.06-11.64-5.7-14.05-6.83-8.76-7.07,7.11-7.57,10.63-2.28Z" fill="#504f4d" stroke-width="0"/><path d="M215.64,508.39c-3.96-.59-5.97.37-6.07-1.52,1.57-1.01,5.21.47,3.04-5.32-.11-.3.06-1,0-1.52.83-.37,2.63-1.15,3.04-1.52v9.87Z" fill="#a98835" stroke-width="0"/><path d="M195.14,511.43c-.09.99.14,2.06,0,3.04-.32,2.28-1.46,5.8-3.8,6.83l.76-9.49c1.29-1.85,1.31-.28,3.04-.38Z" fill="#e0b14a" stroke-width="0"/><path d="M212.6,500.04c.06.52-.11,1.22,0,1.52l-6.07,2.28c-.24-.08-4.24,2.29-2.28-2.28,2.43.19,6.08-.52,8.35-1.52Z" fill="#f6deb3" stroke-width="0"/><path d="M212.6,501.56c2.18,5.79-1.47,4.3-3.04,5.32-.17-3.14,4.01-.8-3.04-3.04l6.07-2.28Z" fill="#161719" stroke-width="0"/><path d="M199.69,512.19c-.25.01-.51-.02-.76,0-.33.03-.83-.93-3.8-.76-1.73.1-1.74-1.47-3.04.38l-.76,9.49h-.76c.26-1.09.41-10.63-1.14-10.63-2.24,15.15-3.65,17.53-1.9.38-3.4-5.09-3.42,10.6-3.8,11.39-.99,2.07-4.62-1.37-4.94,1.9-3.66-5.94-3.94.5-4.18.76-.7.78-1.52,1.55-2.28,2.28-4.26-3.57-4.33-.58-5.32-6.83-.45-2.88,1.85-7.72-1.52-8.35,2.56-5.28,1.07-11.17-2.66-9.87-.78.27-7.97,14.66,1.14,11.39-11.08,5.68-3.05-12.64-1.14-12.91,8.46,4.66,19.05,8.19,28.85,9.87.45.08,7.94-1.78,7.97,1.52Z" fill="#291f13" stroke-width="0"/><path d="M190.58,521.3c-1.46,6.23-11.21,5.02-15.95,3.8.23-.26.52-6.7,4.18-.76.31-3.27,3.95.17,4.94-1.9.38-.79.4-16.48,3.8-11.39-1.75,17.15-.34,14.78,1.9-.38,1.55,0,1.4,9.54,1.14,10.63Z" fill="#e0b14a" stroke-width="0"/><path d="M198.93,512.19l-3.8,2.28c.14-.98-.09-2.04,0-3.04,2.96-.17,3.47.79,3.8.76Z" fill="#d88b32" stroke-width="0"/><path d="M165.53,512.19c-.22.45-1.42,1.47-1.52,1.52-9.11,3.27-1.92-11.12-1.14-11.39,3.73-1.3,5.21,4.59,2.66,9.87Z" fill="#e0b14a" stroke-width="0"/><path d="M174.26,506.87c.44.09.96,2.72,1.52,3.04.09.05,1.4-1.56,1.52-1.52,3.25,1.17-.36,15.03-2.28,2.28-2.64,13.13-4.78-4.64-.76-3.8Z" fill="#e0b14a" stroke-width="0"/><path d="M180.33,509.15c2.36-1.83,4.14,6.95,1.52,7.59-2.64.65-2.23-7.05-1.52-7.59Z" fill="#e39f36" stroke-width="0"/><path d="M169.7,505.36c3.21-.85,1.13,7.51,0,9.11-1.1-.04-1.57-8.69,0-9.11Z" fill="#e0b14a" stroke-width="0"/><path d="M168.94,519.78c.26-.03,4.86,1.65,4.94,1.9,2.41,7.58-8.68-1.52-4.94-1.9Z" fill="#e0b14a" stroke-width="0"/><path d="M180.33,517.5c1.24-.53,3.91,3.72,1.52,4.56-2.3.8-3.13-3.87-1.52-4.56Z" fill="#e0b14a" stroke-width="0"/><path d="M175.78,517.5c1.91-1.38,3.91,1.86,2.28,3.04-1.91,1.38-3.91-1.86-2.28-3.04Z" fill="#e0b14a" stroke-width="0"/><path d="M171.98,516.75c2.42-1.59,3.84,2.48,1.52,3.04-1.48.36-2.68-2.27-1.52-3.04Z" fill="#e0b14a" stroke-width="0"/><path d="M168.94,515.23c1.55-1.18,2.8,3.81.76,3.8-1.84,0-1.34-3.36-.76-3.8Z" fill="#e0b14a" stroke-width="0"/><path d="M299.92,317.81c-1.59,11.92-1.39,39.5,0,51.63-2.82.57-.7-3.61-1.9-4.56-2.64-2.07-13.17,8.77-15.95,9.87-13.73,5.45-20.01-6.27-23.92-7.59-3.29-1.11-3.93,5.29-3.8,5.69.16.46,7.23,4.33,8.35,4.94-4.05.85-8.56-1.96-9.49-1.52-.48.23-2.04,7.11-4.18,9.87-1.59-1.15,4.59-9.93,2.28-12.15,2.56-8.25,2.83-15.12,2.28-23.54,3.04.91,1.86,5.13,5.32,9.87,8.79,12.07,28.34,11.7,34.93-6.83.55-1.55,1.23-2.9,1.52-4.56,4.5-.27,1.73-25.25,3.04-30.75.13-.56,1.01-.39,1.52-.38Z" fill="#161719" stroke-width="0"/><path d="M299.92,317.05c-.04.25.03.51,0,.76-.51,0-1.38-.18-1.52.38-1.31,5.51,1.46,30.48-3.04,30.75.64-3.63,1.58-12.21,0-15.19-2.69-5.07-2.22,4.91-4.56,6.83l-.38-15.19c-21.87,7.41-6.09,3.64-1.14,15.19-.74.17-.87.76-1.52.76-2.67-5.39-12.19-8.4-12.91-10.25-.53-1.37.95-2.28.76-2.66,4.3-4.93,12.99-5.45,15.19-11.39,3.94,2.26-.82,8.64,3.04,12.15.68.62,1.5,1.36,2.28.76,2.71-2.1.43-22.18,3.8-12.91Z" fill="#092d24" stroke-width="0"/><path d="M382.68,292v4.56c-15.94,7.31-21.12,6.68-39.1,6.83-18.91,42.72-1.73,4.8-4.18-7.21-2.15-10.55-12.96-11.54-21.26-7.97,2.23-2.47,1.57-3,2.28-5.32,20.74-4.91,21.53,15.17,23.16,15.95,16.28.19,24.51,1.06,39.1-6.83Z" fill="#13211c" stroke-width="0"/><path d="M321.18,361.09c-2.16.34-1.97,18.89-1.52,25.44.06.84,3.43,6.5,3.04,16.32-.81-.32-1.29-1.55-1.52-2.28-1.15-3.71-1.83-7.6-2.66-11.39-.38-.28-5.79,6.24-6.45,6.83-1.04.94-3.37.7-3.04,3.04-2.63.19-.52-.91-1.52-3.04,11.11-3.84,6.59-21.46,7.59-34.93,3.94.71,4.68-1.54,4.94-1.52,1.87.15.99,1.47,1.14,1.52Z" fill="#161719" stroke-width="0"/><path d="M398.63,320.85c-2.45,3.13-11.21-18.25-10.63-23.16.1-.87,1.34-3.79,2.28-4.94.09-.03.6-1.42,1.14-1.52,2.65,1.2-2.15,10.17,8.73,18.6-1.24,3.51-1.02,7.4-1.52,11.01Z" fill="#147a4f" stroke-width="0"/><path d="M382.68,296.55c2.65-1.22,4.78-2.83,7.59-3.8-.94,1.15-2.17,4.07-2.28,4.94-.58,4.91,8.18,26.28,10.63,23.16-.45,3.25-1.09,7.94-3.04,10.63-4.63-2.57-5.74,5.17-7.21,5.32-1.8.18-23.18-20.23-22.78-27.33-3.31,12.18,23.63,30.68,23.16,33.79l-1.14,1.14c-9.83-9.55-11.78-8.25-4.18,3.42-1.91,2.57-12.74,15.19-14.05,15.57-7.29,2.12-19.61-2.36-22.78-9.87l-1.14.38c7.05,17.96-9.47-13.57-6.07,3.8-1.36,4.35-8.53-4.37-9.87-8.35-2.1-6.25-1.58-30.01-3.8-13.67-.97,7.17.63,16.62,6.07,22.02-12.32-1.36-10.22-35.27-11.01-48.21-2.99,17.04-4.41,34.41-5.69,51.63-1,13.47,3.51,31.09-7.59,34.93-4.04-8.63-6.51-17.1-7.59-26.58-1.39-12.13-1.59-39.71,0-51.63.03-.25-.04-.51,0-.76,1.06-7.01,4.45-16.53,9.11-22.02,1.75-2.06,6.57-5.74,9.11-6.83,8.3-3.57,19.11-2.58,21.26,7.97,2.45,12.01-14.73,49.93,4.18,7.21,17.98-.15,23.17.48,39.1-6.83Z" fill="#2ca066" stroke-width="0"/><path d="M395.59,331.48l-6.83,17.46c-4.91,4.61-14.31,20.36-20.88,21.26-11.03-3.13-23.14-2.32-34.17-4.56-4.96-1.01-9.52-3.65-12.53-4.56-.15-.04.73-1.37-1.14-1.52-.26-.02-.99,2.22-4.94,1.52,1.28-17.23,2.71-34.59,5.69-51.63.79,12.95-1.31,46.86,11.01,48.21-5.44-5.4-7.05-14.85-6.07-22.02,2.21-16.34,1.69,7.41,3.8,13.67,1.34,3.98,8.52,12.71,9.87,8.35-3.4-17.37,13.12,14.16,6.07-3.8l1.14-.38c3.17,7.51,15.49,11.99,22.78,9.87,1.31-.38,12.14-13,14.05-15.57-7.61-11.67-5.65-12.97,4.18-3.42l1.14-1.14c.47-3.11-26.47-21.61-23.16-33.79-.4,7.1,20.98,27.51,22.78,27.33,1.47-.15,2.58-7.88,7.21-5.32Z" fill="#092d24" stroke-width="0"/><path d="M351.17,305.66c-2.9,13.44-4.08,26.88-3.42,40.62,6.33,13.98-4.61,1.93-3.04-17.46.18-2.19,5.31-23.57,6.45-23.16Z" fill="#092d24" stroke-width="0"/><path d="M326.87,302.63l-3.04,39.48c-3.11-13.18.21-26.62,3.04-39.48Z" fill="#092d24" stroke-width="0"/><path d="M367.12,322.37c10.65,20.69,14.34,42.73,5.69,20.88-2.14-5.42-4.26-14.88-5.69-20.88Z" fill="#003f2b" stroke-width="0"/><path d="M359.52,332.24c5.92,7.67,7.23,15.5,6.83,25.06l-6.83-25.06Z" fill="#04503d" stroke-width="0"/><path d="M334.47,345.91l3.04,12.15c-3.58-3.14-4.12-7.71-3.04-12.15Z" fill="#04503d" stroke-width="0"/><path d="M205.77,93.06c-39.74,34.86-69.65,100.69-22.78,142.75,5.09,4.57,10.48,7.78,15.95,11.77,0,1.71-24.51-.3-30.75-10.25,11.2,22.29,54.38,4.88,5.69,22.78-5.46-.7-17.57-24.21-19.74-29.61-.24-.6-.49-1.54-.76-2.28,3.75-1.89.69-18.16-1.14-18.22-2.81-.09.35,3.82-3.42.76-.63-4.37-.79-8.53-1.14-12.91-6.2,18.83,1.1,39.25.38,49.73-.12,1.73-4.37,18.97-5.32,11.77-.47-3.58-2.14-6.49-3.04-9.87,4.58,0-2.15-17.69-3.8-27.71-.9-5.52,2.48-7.1-2.28-7.97,1.08-10.54,4.88-23.96,9.11-33.79-.21-3.15-4.36,4.7-6.83,9.49-2.6-1.5-6.53,3.63-8.35,7.21-.09.17.07,3.62,0,3.8-.35.89-2.97,4.29-3.04,4.56-.25,1.03.98,1.21.76,2.28-.13.62-1.41.14-1.52.76-2.18,12.11,4.15,29-4.56,23.16.07-3.89-.26-7.9,0-11.77.41-6,4.48-18.4,1.52-20.12,2.32-5.94,8.48-14.14,4.56-11.77-2.29,1.38-15.12,24.13-17.46,28.47-1.72,3.18-3.71,6.72-4.56,10.25h-1.52c-.04-5.2,1.45-9.93,3.04-14.81,5.72-17.6,16.51-21.24,26.58-33.79,1.87-2.33,7.38-9.71,5.32-11.01,2.82-2.98,11.43-11.86,12.15-15.19.04-.19,2.56-.68-1.52-2.28,6.07-6,1.03-1.93-6.07,3.04.08-1-1.92-.97-2.66-.76-15.11,4.26-35.84,28.6-46.7,38.72-1.26,1.18-2.12,1.7-3.8,2.28,1.34-11.14,6.08-21.08,12.15-30.37,9.25-.17,62.13-23.51,56.19-30.37,4.99-2.81,9.48-6.44,13.67-10.25-.98-1.18-1.53.44-2.28.38-9.2-.71-25.64,10.88-36.83,12.15l-1.14,4.56c-8.66,3.34-14.72,5.17-22.4,11.39-.06-3.04,4.33-9.25,6.45-11.39,6.28-6.33,55.64-31.54,67.2-27.33,6.62-14.22,20.04-23.02,22.4-26.58,2.55-.74,4.47-2.62,6.83-3.8,6.25-3.11,14.48-6.27,21.26-3.42-5.6,1.42-11.32,3.59-16.32,6.45-2.84,1.63-13.38,9.42-9.49,9.11Z" fill="#9c523d" stroke-width="0"/><path d="M151.86,174.31c2.14-13.54,6.02-26.18,11.39-38.72,9.62-3.29-2.32,13.64-6.07,28.47-2.02,7.97,2.05,12.73-5.32,10.25Z" fill="#b36545" stroke-width="0"/><path d="M163.25,135.58c-5.37,12.54-9.25,25.19-11.39,38.72,1.26,23.31-6.43-13.39,6.07-35.31,1.76-3.09,4.25-5.54,6.83-7.97-.55,1.37-.94,3.21-1.52,4.56Z" fill="#281a16" stroke-width="0"/><path d="M164.77,131.03c.09-.09-.4-1.24,1.14-2.28,1.33,1.4-1.09,2.16-1.14,2.28Z" fill="#281a16" stroke-width="0"/><path d="M255.88,339.83c-.04-.24.03-.51,0-.76.86-4.01,3.51-4.63,6.07-6.83,11.93-6.19-4.11,18.79-6.07,7.59Z" fill="#2ca066" stroke-width="0"/><path d="M270.31,297.31c.43,3.68.28,7.81.76,11.39.66,4.98.16,10.9,1.52,15.95.17.62,1.35.44,3.04,3.8.19.38-1.29,1.28-.76,2.66.71,1.85,10.24,4.86,12.91,10.25,1.34,2.71,1.88,6.36-1.14,8.35-6.23,4.12-1.16-1.59-1.14-1.9.68-8.4-8.37-8.34-9.87,4.18-8.67-.08.25-7.82-4.18-19.74-2.55,4.47-2.64,10.03-.38,14.81-.1.66-1.42.27-1.52.38-2.08-4.15-6.33-1.27-.76,0-.13.07.76,2.24-2.66,1.52-2.05-.43-3.26-4.49-8.73-4.18,10.99,2.98,13.19-21.28,12.91-29.61-.05-1.65-1.81-15.13-2.28-17.84h2.28Z" fill="#e39f36" stroke-width="0"/><path d="M295.36,333.76c1.58,2.98.64,11.55,0,15.19-.29,1.65-.97,3.01-1.52,4.56-13.51,15.76-23.76,18.2-36.45,0-.04-.26-1.68-.32-.38-5.32.77,2.86,3.03,3.6,4.94,5.32,3.39,3.04,6.46,5.81,10.25,8.35,8.29,3.88,20.3-14.46,21.64-20.88.67-3.2-1.37-7.76,1.52-7.21Z" fill="#c27023" stroke-width="0"/><path d="M293.85,353.5c-6.59,18.53-26.13,18.9-34.93,6.83-.85-2.31-1.16-4.42-1.52-6.83,12.69,18.2,22.93,15.76,36.45,0Z" fill="#f7e7d5" stroke-width="0"/><path d="M269.55,347.42c-.11.12-.56-.11-.76,0-5.57-1.27-1.32-4.15.76,0Z" fill="#230b09" stroke-width="0"/><path d="M290.81,317.05c-2.19,5.94-10.88,6.46-15.19,11.39-1.69-3.36-2.87-3.18-3.04-3.8,1.98-7.68,8.53-1.92,18.22-9.87-.18.64.2,1.74,0,2.28Z" fill="#1c925f" stroke-width="0"/><path d="M338.64,98.38c10.27.61,17.14-3.8,22.78-12.15,19.43-28.79-12.99-47.81-36.45-16.7-5.61,7.44-7,10.93-8.35,20.5-1.05-1.2-1.85-2.76-3.04-3.8.29-12.86,6.66-24.1,15.95-32.65.25-.23,3.27-2.64,3.8-3.04,11.49-6.82,26.85-10.06,35.69,2.66,13.41,19.3-7.83,54.55-24.68,52.77-6.57-.69-7.97-2.14-5.69-7.59Z" fill="#e0b14a" stroke-width="0"/><path d="M358.38,81.67c-2.19,6.11-8.41,10.12-13.67,12.91l-6.07-.76c5.49-17.11,1.42-4.75-7.97-9.87-.29-.16-4.18-3.88-4.18-4.18,0-.55,8.88-9.92.76-5.69,2.75-4.33,5.64-7.08,9.87-9.87,5.1-2.26,12.61-6.24,17.84-3.04,5.93,3.63,5.4,14.98,3.42,20.5Z" fill="#321710" stroke-width="0"/><path d="M361.42,86.23c-5.64,8.35-12.51,12.76-22.78,12.15.2-.48-1.62-1.48-.38-2.28.28-.18,3.76-.09,6.45-1.52,5.26-2.78,11.47-6.79,13.67-12.91l3.04,4.56Z" fill="#c27023" stroke-width="0"/><path d="M337.12,64.21c-4.23,2.79-7.12,5.54-9.87,9.87-4.5,7.08-5.56,12.08-5.32,20.5-1.95,1.7-2.56-1.39-5.32-4.56,1.35-9.57,2.74-13.06,8.35-20.5,2.8,3.19,3.95-1.52,6.45-3.04,6.98-4.23,5.41-2.15,5.69-2.28Z" fill="#c27023" stroke-width="0"/><path d="M361.42,86.23l-3.04-4.56c1.98-5.52,2.51-16.87-3.42-20.5-5.23-3.2-12.74.77-17.84,3.04-.28.12,1.28-1.95-5.69,2.28-2.5,1.52-3.66,6.22-6.45,3.04,23.46-31.1,55.88-12.08,36.45,16.7Z" fill="#d88b32" stroke-width="0"/><path d="M299.16,390.7c1.54,3.26,2.66,6.77,4.56,9.87-16.77,10.4-49.04,10.2-67.58,3.8,4.62-4.65,6.89-8.18,10.63-12.91,10.06-.06,19.88,2.13,29.99,1.52,7.71-.46,20.6-5.36,22.4-2.28Z" fill="#fdfdfd" stroke-width="0"/><path d="M308.27,407.41c-24.21,11.51-52.77,10.6-77.83,2.28-1.02-1.25,5.13-4.75,5.69-5.32,18.53,6.4,50.81,6.6,67.58-3.8.73,1.19,4.26,6.55,4.56,6.83Z" fill="#2ca066" stroke-width="0"/><path d="M293.85,374c.73,3.67,2.09,7.24,2.28,11.01-.62,1.29-11.79,3.23-13.67,3.42-6.71.67-24.65.12-31.13-1.52-.81-.2-1.38-.09-2.28-.76,2.14-2.76,3.69-9.64,4.18-9.87.94-.45,5.44,2.37,9.49,1.52,3.41,1.84,6.88,6.79,20.88,2.28,3.62-1.17,6.67-4.76,10.25-6.07Z" fill="#fdfdfd" stroke-width="0"/><path d="M214.12,421.83c2.15-1.56,9.96-7.3,10.63-7.59,4.36,6.31,21.37,9.29,29.99,9.87l3.8,5.32c-14.77-2.83-30.04-2.8-44.42-7.59Z" fill="#e39f36" stroke-width="0"/><path d="M282.46,388.43c.8,4.76,11.25-.17,15.57-.76,3.11,2.26,1.07,2.89,1.14,3.04-1.8-3.08-14.68,1.81-22.4,2.28-10.11.61-19.93-1.58-29.99-1.52,1.41-1.79,3.18-2.77,4.56-4.56,6.48,1.63,24.42,2.19,31.13,1.52Z" fill="#161719" stroke-width="0"/><path d="M290.05,488.65c-1.83,3.85-8.6-2.91-14.43,2.28.16-9.63-6.76-.55-.76,3.04-.31.86-1.03,1.49-1.52,2.28-1.89-.12-2.28,1.48-2.66,1.52-1.5.15,2.31-2.64-4.18.76q-.38-11.77-.76-23.54c5.6,5.86,16.26,12.56,24.3,13.67Z" fill="#212015" stroke-width="0"/><path d="M270.31,514.47c1.16,1.37,3.05,1.64,4.56,2.28,6.93,2.94,17.77,3.4,25.82,4.56,13.79,1.98,28.03,2.38,41.76,5.32-2.22,1.41-1.29,2.84-1.9,3.04-3.48,1.11-69.5-3.96-72.89-5.32-3.67-1.47-2.05-11.19,2.66-9.87Z" fill="#2d2f32" stroke-width="0"/><path d="M346.24,522.06c-4.52-.29-9.18-.2-13.67-.76-.35-6.03,1.51-13.82-3.8-17.84.93-4.35,19.92-2.44,17.46,18.6Z" fill="#fdfdfd" stroke-width="0"/><path d="M324.22,519.78c5.06.58,7.73,1.44,8.35,1.52,4.49.56,9.15.46,13.67.76-.16,1.36.11,2.8,0,4.18l-3.8.38c-13.73-2.94-27.97-3.34-41.76-5.32,3.94-1.31,2.41-1.03,3.8-4.56,3.88,1.56,1.95,5.74,4.56,3.42.29-.26-.46-2.1.38-2.66.62-.41,12.61,2.03,14.81,2.28Z" fill="#6f6f70" stroke-width="0"/><path d="M279.42,512.95l-4.56,3.8c-1.5-.64-3.39-.91-4.56-2.28-8.3-9.8,1.44-15.65,3.04-18.22.93.06,1.85-.28,2.28.38.86,6.28-2.7,13.86,3.8,16.32Z" fill="#95999b" stroke-width="0"/><path d="M304.48,516.75c-1.39,3.53.15,3.24-3.8,4.56-8.05-1.15-18.89-1.61-25.82-4.56l4.56-3.8c2.54.96,21.52,2.38,25.06,3.8Z" fill="#504f4d" stroke-width="0"/><path d="M275.62,490.93c-.06,3.84-.71,2.89-.76,3.04-6-3.59.92-12.67.76-3.04Z" fill="#797d3a" stroke-width="0"/><path d="M317.38,411.2c.1.13,2.06,1,2.28,2.28-1.49,10.06,8.91,34.82.76,52.01,2.27,10.29,1.96,21.31-2.28,31.13-.37,1.06,1.77,1.47,3.04,1.9.04,1.16-1.01.59-1.52.76-3.89,1.28-2.44,8.48-1.52,12.15-.59,1.02-.86,1.8-2.28,1.52,2.91-18.45-2.85-21.64-3.04,2.66.34.62,1.04.81,1.52,1.14,3.46,2.37,9.98.22,9.87,3.04-2.2-.25-14.18-2.69-14.81-2.28-.84.56-.09,2.4-.38,2.66-2.6,2.32-.68-1.86-4.56-3.42-3.54-1.42-22.52-2.83-25.06-3.8-6.49-2.47-2.94-10.05-3.8-16.32-.43-.66-1.35-.32-2.28-.38.49-.79,1.21-1.42,1.52-2.28.05-.15.7.8.76-3.04,5.83-5.19,12.59,1.57,14.43-2.28,6.55.91,16.15.61,22.02-2.28,2.05-1.01,5.53-3.5,6.07-5.69,4.65-18.69-8.08-9.25-10.63,1.14-.49.04-1.05-.09-1.52,0-.63-1.57,2.91-5.69,1.14-6.83-1.67-1.08-9.34,7.36-38.34-4.56,4.08,1.1,8.04,1.55,12.15,2.28,12.34,2.18,17.88,4.59,28.85-2.28,3.68-2.3,9.22-5.52,7.97-10.63-6.74,3.85-18.61,2.3-26.58,1.52-.77.95-1.66,1.58-2.66,2.28-1.49-1.28,4.77-4.71,5.32-5.32,3.96,2.74,23.72,2.36,25.82-1.9.58-2.6-.78-3.24-.76-3.42.71-5.08,1.28-10.46.76-15.57-2.32-22.68-5.29-16.29-9.87-12.53l.76-3.04c4.79-2.83,5.52-5.26,2.28-9.87,3.2-.72,3.3-1.71,4.56-.76Z" fill="#281a16" stroke-width="0"/><path d="M315.86,512.95c-.23,1.45.67,3.15-1.52,3.8-.47-.33-1.18-.52-1.52-1.14.19-24.3,5.95-21.1,3.04-2.66Z" fill="#e0b14a" stroke-width="0"/><path d="M319.66,499.28c1.84,3.59.39,8.86-1.52,12.15-.92-3.67-2.37-10.87,1.52-12.15Z" fill="#e39f36" stroke-width="0"/><path d="M310.17,499.28c2.78-.66,2.42,15.6,1.9,16.32-.35.49-5.15.62-5.69.38-4.14-1.84,1.55-34.59,2.28-.76,3.11-3.37-.95-15.36,1.52-15.95Z" fill="#e0b14a" stroke-width="0"/><path d="M301.82,499.28c.58.99,1.69.59,1.9,1.14,4.06,10.59-6.71,27.34-1.9-1.14Z" fill="#e0b14a" stroke-width="0"/><path d="M297.26,499.28c3.1-.74,1.86,11.53,1.52,15.19-2.42,1.85-2.78-14.88-1.52-15.19Z" fill="#e0b14a" stroke-width="0"/><path d="M292.71,499.28c2.63-2.15,2.87,13.21,2.28,13.67-3.98,3.09-2.7-11.34-2.28-13.67Z" fill="#e0b14a" stroke-width="0"/><path d="M288.91,498.52c2.78-.51,2.59,18.27-.38,13.29-.34-.57-.47-13.13.38-13.29Z" fill="#e0b14a" stroke-width="0"/><path d="M285.11,498.52c1.04,0,2.08,12.57,1.52,12.91-3.13,1.87-3.17-12.91-1.52-12.91Z" fill="#e0b14a" stroke-width="0"/><path d="M281.32,497.76c1.48,1.86.98,3.5,1.14,5.69.94,12.68-2.95,9.36-1.14-5.69Z" fill="#bf9a48" stroke-width="0"/><path d="M315.48,487.89c2.46.93,5.64,12.11-16.7,9.11,2.09-6.37.49-5.2-1.52,0-29.24,0-17.68-11.96-15.19-3.8,1.95-5.25,13.79-1.22,18.22-1.52,5.91-.4,14.45-4.07,15.19-3.8Z" fill="#758c58" stroke-width="0"/><path d="M285.87,491.69c.12-.01,1.43,1.13,1.14,1.9-.45,1.17-2.39-1.77-1.14-1.9Z" fill="#3c491e" stroke-width="0"/><path d="M304.1,492.45c.97.68.41,3.34-.76,1.52-.48-.75.67-1.58.76-1.52Z" fill="#586739" stroke-width="0"/><path d="M162.49,279.85c-14.86,12.3-21.83,29.81-32.65,45.18-1.2,7.48-3.5,14.41-6.83,21.26,1.62,1.81,3.97,1.87,6.07,2.66,2.37.89,6.77,1.3,6.83,3.04-5.16-.46-12.7-4.15-13.67-2.66,3.47,5.95,7.52,11.7,10.63,17.84,7.36,14.54,9.22,24.35,22.78,34.93,25.56,19.95,33.26,14.51,58.47,6.07,1.25-.42,2.54-1.09,3.8-1.52,1.65,1.14,6.37,2.45,6.07,5.32-5.6-6.49-12.76,1.05-24.68,5.32-10.58,3.79-21.8,2.71-12.15,6.83,1.52.65,6.07,1.42,7.97,1.52l-5.32,1.52c-15.36-5.18-13.42-14.69-18.22-2.28-.04-.15-1.64-2.44-2.28-2.28.34-1.28.82-2.43.76-3.8-.05-1.14-1.1-.28-1.52-1.52-.19-.58,1.26-1.15.76-1.9-1.94-2.92-10.24-5.69-11.39-6.45-6.46-4.31-10.58-6.73-15.95-12.91-4.64-8.58-8.32-17.77-12.91-26.2-8.3-15.27-21.05-18.03-3.8-36.45-1.61-14.43,6.18-15.05,7.59-17.46,6.03-10.3,8.1-22.75,25.82-37.58-.91,2.62,2.06,2.18,3.8,1.52Z" fill="#13211c" stroke-width="0"/><path d="M201.21,368.68c-11.53-.61,18.13,20.62-8.73,32.65-8.29,3.71-8.15,1.64-9.49,0,2.67-1.74,5.67-3.89,7.59-6.45,5.97-7.97,6.75-10.85-1.52-1.9-2.18-4.32-7.88,4.38-12.53,5.32-3.87.78-13.44-.79-17.08,0l-2.28-4.56c7.82-4.42,16.25-17.64,7.59-9.87,0-1.43-2.08-4.82-3.04-5.32-2.33-1.21-5.29,5.61-12.91,10.63-1.09-.64-1.35-1.9-1.52-3.04,5.7-5.26,8.2-16.44,1.52-6.07l-2.28-1.52c3.77-4.77,6.58-12.74,15.57-19.74,1.27-.99,14.28-7.44,5.32-4.56-5.91,1.9-19.78,16.36-22.4,22.02-6.89-3.01-10.61-13.05-12.15-9.11-3.11-6.14-7.16-11.9-10.63-17.84.97-1.5,8.5,2.2,13.67,2.66,25.27,2.24,44.09-19.51,63.78,13.29-18.09,2.97-24.13,22.89-39.1,31.51,15.74-2.21,31.63-37.55,40.62-28.09Z" fill="#2ca066" stroke-width="0"/><path d="M201.21,368.68c2.35,2.47,5.61,12.98,6.07,16.7-.51,0-1.37-.19-1.52.38-3.11,12.04-10.4,16.45-10.63,17.46-1.26,5.46,2.65,2.63,3.04,2.66,2.51.16,5.61-.05,7.59-1.52,3.87,7.9,3.83,1.97,8.35,3.8-25.21,8.43-32.9,13.88-58.47-6.07.36-.45,1.35-3.33,1.52-3.42,1.03-.52,1.51-.21,2.28-.38,3.65-.79,13.21.78,17.08,0,4.65-.93,10.35-9.63,12.53-5.32-2.49,2.7-4.86,5.49-7.59,7.97-.12,2.18,1.26.06,1.52.38,1.34,1.64,1.2,3.71,9.49,0,26.86-12.03-2.8-33.26,8.73-32.65Z" fill="#147a4f" stroke-width="0"/><path d="M145.02,376.28c-2.16,4.66-2.43,7.27,1.52,2.28l2.28,1.52c-.89,1.38-1.8,4.2-1.52,6.07.17,1.14.42,2.4,1.52,3.04,1.76,1.02.75.49,2.28,0l4.56,3.04c-4.27,4.36-3.11,4.13,1.52,1.52l2.28,4.56c-.77.17-1.25-.14-2.28.38-.17.08-1.15,2.97-1.52,3.42-13.55-10.58-15.42-20.38-22.78-34.93,1.54-3.94,5.26,6.1,12.15,9.11Z" fill="#147a4f" stroke-width="0"/><path d="M211.84,284.4c8.34,4.9,24.34,15.84,29.61,23.54,6.96,10.16,11.35,30.35,12.15,42.52.55,8.41.28,15.29-2.28,23.54-3.14,10.12-16.57,29.35-26.95,32.65-2-1.03-4.49-.67-6.45,0-1.25.43-2.54,1.1-3.8,1.52-4.52-1.82-4.49,4.1-8.35-3.8,14.43-10.67.32-41.72-9.87-52.01-.68-3.86,17.79-19.6,4.94-58.09q.19,16.89.38,33.79c-3.57-18.53-12.17-43.13-4.56-6.83-.22,28.17-.24,10.09-6.83-11.39-2.12-6.91-4.98-14.08-8.35-20.5.27,6.57,11.81,49.18,7.21,51.25-17.56-5.61-31.45-17.88-46.7-27.71,14.67,19.92,42.98,29.08,45.18,30.75,6.27,4.76-4.3,1.78-12.91-1.52-7.16-2.74-19.79-12.8-6.45.38-9.43,10.48-24.85-17.74-12.15,3.04-8.52,5.81-14.56-5.45-19.36-11.01,1.37,4.53,3.6,11.23,7.97,13.29l-15.19,1.14c-2.11-.79-4.45-.85-6.07-2.66,3.34-6.85,5.63-13.78,6.83-21.26,10.81-15.37,17.79-32.88,32.65-45.18,11.12-4.22,11.74-17.58,49.35,4.56Z" fill="#2ca066" stroke-width="0"/><path d="M242.97,305.66l-1.52,2.28c-5.27-7.69-21.28-18.63-29.61-23.54l1.52-3.8c10.36,6.18,22.97,14.8,29.61,25.06Z" fill="#13211c" stroke-width="0"/><path d="M205.77,404.37c-1.98,1.47-5.08,1.68-7.59,1.52,10.37-2.26,10.21-11.6,9.11-20.5-.46-3.73-3.72-14.23-6.07-16.7-8.99-9.46-24.88,25.89-40.62,28.09,14.97-8.62,21.02-28.54,39.1-31.51-19.69-32.79-38.51-11.05-63.78-13.29-.06-1.74-4.46-2.15-6.83-3.04l15.19-1.14c-4.38-2.06-6.6-8.75-7.97-13.29,4.81,5.56,10.85,16.82,19.36,11.01-12.7-20.77,2.72,7.44,12.15-3.04-13.34-13.18-.7-3.12,6.45-.38,8.61,3.3,19.17,6.28,12.91,1.52-2.2-1.67-30.51-10.83-45.18-30.75,15.24,9.83,29.14,22.11,46.7,27.71,4.59-2.07-6.95-44.68-7.21-51.25,3.37,6.42,6.23,13.59,8.35,20.5,6.59,21.48,6.61,39.55,6.83,11.39-7.62-36.3.98-11.7,4.56,6.83q-.19-16.89-.38-33.79c12.86,38.49-5.61,54.23-4.94,58.09,10.19,10.29,24.3,41.34,9.87,52.01Z" fill="#042b2b" stroke-width="0"/><path d="M206.91,354.26c5.14,9.02,8.27,30.13,6.83,6.83,3.54,10.98,5.91,22.61,3.04,34.17.6-14.07-11.96-40.59-9.87-41Z" fill="#092d24" stroke-width="0"/><path d="M219.06,369.44c4.97,8.88,6.74,19.54,2.28,28.85l-2.28-28.85Z" fill="#003f2b" stroke-width="0"/><path d="M164.77,383.87c-1.91,1.72-7.88,7.1-9.11,8.35l-4.56-3.04c4.16-1.35,7.86-7.52,10.63-10.63.96.5,3.04,3.88,3.04,5.32Z" fill="#1c925f" stroke-width="0"/><path d="M146.54,378.56c-3.95,5-3.67,2.38-1.52-2.28,2.62-5.66,16.49-20.12,22.4-22.02,8.97-2.88-4.04,3.56-5.32,4.56-8.99,7-11.8,14.97-15.57,19.74Z" fill="#003f2b" stroke-width="0"/><path d="M157.17,393.74c-4.62,2.61-5.79,2.85-1.52-1.52,1.23-1.25,7.2-6.64,9.11-8.35,8.66-7.77.23,5.45-7.59,9.87Z" fill="#003f2b" stroke-width="0"/><path d="M182.99,401.33c-.26-.32-1.64,1.8-1.52-.38,2.73-2.48,5.1-5.27,7.59-7.97,8.27-8.95,7.49-6.08,1.52,1.9-1.92,2.56-4.92,4.72-7.59,6.45Z" fill="#04503d" stroke-width="0"/><path d="M161.73,378.56c-2.77,3.11-6.47,9.28-10.63,10.63-1.52.49-.52,1.02-2.28,0,7.62-5.02,10.58-11.84,12.91-10.63Z" fill="#003f2b" stroke-width="0"/><path d="M147.3,386.15c-.28-1.88.63-4.69,1.52-6.07,6.68-10.36,4.18.81-1.52,6.07Z" fill="#003f2b" stroke-width="0"/><path d="M207.29,385.39c1.1,8.9,1.26,18.24-9.11,20.5-.38-.02-4.3,2.8-3.04-2.66.23-1.01,7.52-5.43,10.63-17.46.15-.57,1-.39,1.52-.38Z" fill="#2ca066" stroke-width="0"/><path d="M216.4,484.86c-7.14-1.43-11.35,5.75-17.84,6.83-20.44,3.41-24.47-7.09-35.31-21.26,15.23,9.99,32.19,17.82,50.49,9.87l2.66,4.56Z" fill="#eed2b7" stroke-width="0"/><path d="M296.12,329.96c-.78.61-1.6-.14-2.28-.76-.46-2.41.35-21.38,4.18-18.98.84.53-3.06,14.01-1.9,19.74Z" fill="#d88b32" stroke-width="0"/><path d="M258.16,367.17c9.18,13.59,24.97,13.47,34.55,0,1.89,2.46.77,4.99,1.14,6.83-3.58,1.31-6.63,4.91-10.25,6.07-14,4.51-17.47-.44-20.88-2.28-1.12-.6-8.2-4.48-8.35-4.94-.14-.41.51-6.81,3.8-5.69Z" fill="#e39f36" stroke-width="0"/><path d="M290.81,340.59c-.15.12-.99-.12-1.52,0-4.96-11.55-20.73-7.78,1.14-15.19l.38,15.19Z" fill="#2ca066" stroke-width="0"/><path d="M303.72,191.01c.91,1.23,1.46,1.43,1.52,1.52,2.06,3.3,3.09,7.07,4.56,10.63l1.14,2.28c2.65-.27,19.01,2.44,17.84,4.56l-17.08-.76c-1.37,1.68.41,2.89.38,3.04-.62,3.31-.99,6.56-1.52,9.87-10.04,11.15-12.84,26.72-25.06,35.69-34.09,7.17-45.92-9-61.88-35.69-.77.19,1.33,4.68-2.66,6.83-.19.1-.54-.1-.76,0-2.84-5.53-2.21-11.48-2.28-17.46,3.15-.18,4.78,1.74,6.83,3.8,2.8,2.8,5.13,7.77,8.73,9.87,12.01,6.99,31.38-.25,40.24-9.87,2.47-.26,23.3,23.34,30.37,6.83-9.27,5.55-27.02-5.28-27.71-15.19,6.26-3.52,11.18-8.77,17.08-12.91,3.36-2.35,9.31-1.91,6.45-7.59,1.45,1.03,2.68,3.06,3.8,4.56Z" fill="#fdfdfd" stroke-width="0"/><path d="M285.49,257.83c-21.48,15.77-30.62,2.23-32.27,1.52-3.23-1.39-8.99-1.67-15.19-6.07-7.58-6.73-11.46-16.09-17.08-24.3,3.99-2.15,1.89-6.64,2.66-6.83,15.96,26.69,27.79,42.86,61.88,35.69Z" fill="#c8c8ca" stroke-width="0"/><path d="M260.44,192.53c3.58,2.32,12.09,5.42,12.91,10.25,2.5,14.75-31.98,30.79-48.59,12.53-2.05-2.06-3.68-3.97-6.83-3.8,0-.74-.8-.83-.76-1.52.01-.19,1.17.49.76-3.8l.76-.76c1.15-2.79.53-5.49.76-6.07.25-.65,2.88-4.07,3.04-4.56,3.63,4.74,7.34-9.22,28.47-4.56,2.38.52,8.35,5.7,9.49,2.28Z" fill="#f7e7d5" stroke-width="0"/><path d="M299.92,186.45c2.85,5.69-3.1,5.24-6.45,7.59-5.9,4.14-10.83,9.39-17.08,12.91-.84-12.11,14.76-12.69,20.5-21.26.1.02-.35-1.09,1.9-.76l1.14,1.52Z" fill="#fdfdfd" stroke-width="0"/><path d="M245.25,183.42c1.81.63,12.63,7.46,15.19,9.11-1.14,3.43-7.12-1.75-9.49-2.28-21.13-4.66-24.84,9.29-28.47,4.56.24-.71-.15-2.11,0-3.04,1.45-.69,1.43-1.45,1.52-1.52,1.34-.99,2.96-3.74,3.8-5.32,5.66-4.22,10.85-3.84,17.46-1.52Z" fill="#f7e7d5" stroke-width="0"/><path d="M295.36,333.76c-2.89-.55-.85,4.01-1.52,7.21-1.34,6.42-13.34,24.76-21.64,20.88-3.79-2.55-6.86-5.31-10.25-8.35v-3.04c.55.37,11.11,5.99,11.77,6.07,2.88.36,12.91-5.85,8.35-6.83-.29-.06-2.65,2.07-3.42,2.28-.32-1.73-1.32.02-3.04,0,1.51-12.52,10.55-12.58,9.87-4.18-.02.31-5.09,6.02,1.14,1.9,3.01-1.99,2.48-5.64,1.14-8.35.65,0,.77-.59,1.52-.76.53-.12,1.37.12,1.52,0,2.33-1.92,1.86-11.91,4.56-6.83Z" fill="#281a16" stroke-width="0"/><path d="M278.66,351.98c.77-.2,3.13-2.34,3.42-2.28,4.56.99-5.47,7.2-8.35,6.83-.66-.08-11.22-5.7-11.77-6.07-.38-.26-2.28-1.75-2.28-1.9,8.44-.77,8.81,6.12,18.98,3.42Z" fill="#f8d094" stroke-width="0"/><path d="M280.56,343.63c10.53-2.9-4.26,13.33-2.66,3.42.07-.42,2.15-3.28,2.66-3.42Z" fill="#e39f36" stroke-width="0"/><path d="M252.84,102.93c.4,4.27,11.27,7.22,12.15,9.49.1,1.12-.15,2.31,0,3.42-22.24-3.21-30.24-24.47-32.27-25.06-25.57,7.02-40.79,26.84-50.49,50.49-.95,2.31-9.54,28.45-9.87,29.99-2.95,13.59-2.03,15.07,21.26,18.22,10.35,6.05,13.07,1.52.38,6.07-.59.21-.38,1.01-.38,1.52-5.52.96-26.11,2.83-8.73,5.32,9.72,1.39,25.04.37,34.55-3.04-.23.59.39,3.28-.76,6.07h-13.29c-.66,6.51-8.46-.9-11.77,4.94.07.26,4.76-.31,5.32-.38-.06.99.67.73,1.52.76-.57,5.18,11.27,7.83,16.32,12.91-1.15-11.07,3.08-11.17-7.97-12.91l8.35-.76c-.04.69.75.78.76,1.52.07,5.99-.56,11.94,2.28,17.46-6.08,2.7-30.28,5.19-36.45,3.04-37.4-30.51-18.49-85.2,7.59-116.55,9.91-11.91,39.28-38.19,53.91-22.78.63.66,2.38,5.42,7.59,10.25Z" fill="#c56021" stroke-width="0"/><path d="M340.16,184.94c-.03,5.79-.51,12.73-2.28,18.22-.84,2.62-9.58,18.06-11.39,18.98-2.74,1.4-12.46,1.08-15.95,0,.53-3.32.9-6.56,1.52-9.87,5.21-.3,13.69,1.09,16.7-2.28,1.17-2.12-15.19-4.82-17.84-4.56l-1.14-2.28c2.19-3.64,21.35-.21,24.68-1.52,1.24-.49,2.78-6.13,2.66-6.45-.93-2.55-27.95-4.21-31.89-2.66-.06-.09-.6-.29-1.52-1.52,10.81-1.47,22.06-1.68,32.65-4.56,1.25-.34,2.34-1.67,3.8-1.52Z" fill="#c56021" stroke-width="0"/><path d="M291.57,90.02c-1.39-.48-2.52-1.78-4.18-1.52-.76.26-.19,2.11-.38,2.28-7.37,6.6-10.67,17.36-20.5,21.64q3.04,34.74,6.07,69.47c-1-.08-2.03.07-3.04,0,1.2-10.85-2.1-22.11-3.04-33.03-.85-9.85-.66-26.72-1.52-33.03-.15-1.1.1-2.3,0-3.42-.87-2.27-11.75-5.22-12.15-9.49,10.69,9.91,15.18,9.3,24.3-1.14,5-5.72,9.78-20.75,14.43-11.77Z" fill="#75220e" stroke-width="0"/><path d="M336.37,186.45c-10.59,2.88-21.84,3.08-32.65,4.56-1.12-1.5-2.35-3.53-3.8-4.56l-1.14-1.52c-2.25-.33-1.8.78-1.9.76-2.52-.45-5.78-.28-8.35-.76.09-.99-.14-2.06,0-3.04.4.1,1.29.57,1.52.76,4.51,3.69,44.37-2.55,44.8-8.35,1.02-.41.73-2.59,3.8-1.14-.84,6.38,2.6,9.25-2.28,13.29Z" fill="#f8ce60" stroke-width="0"/><path d="M309.79,203.16c-1.46-3.56-2.49-7.33-4.56-10.63,3.94-1.56,30.96.11,31.89,2.66.12.33-1.42,5.97-2.66,6.45-3.33,1.31-22.48-2.12-24.68,1.52Z" fill="#f8ce60" stroke-width="0"/><path d="M328.77,209.99c-3.01,3.36-11.49,1.98-16.7,2.28.03-.15-1.75-1.36-.38-3.04l17.08.76Z" fill="#75220e" stroke-width="0"/><path d="M179.19,170.51c-.62,4.41,1.8,6.15,6.07,6.83,9.23,6.24,30.54,2.96,43.66,3.8l1.14,1.14c-2.08.19-1.6,1.38-2.28,2.66-.84,1.58-2.46,4.32-3.8,5.32-10.15,1.76-20.32.6-30.37-.76-23.29-3.16-24.21-4.63-21.26-18.22,5.8-.75,1.09,9.1,6.83-.76Z" fill="#f8ce60" stroke-width="0"/><path d="M222.47,191.77c-.15.93.24,2.32,0,3.04-.16.48-2.79,3.91-3.04,4.56-9.51,3.4-24.83,4.43-34.55,3.04-17.37-2.48,3.21-4.35,8.73-5.32,5.15-.9,26.37-4.14,28.85-5.32Z" fill="#f8ce60" stroke-width="0"/><path d="M208.8,210.75c11.06,1.74,6.82,1.84,7.97,12.91-5.06-5.08-16.89-7.73-16.32-12.91,2.63.09,6.22-.34,8.35,0Z" fill="#c27023" stroke-width="0"/><path d="M223.99,190.25c-.09.06-.07.83-1.52,1.52-2.48,1.17-23.71,4.42-28.85,5.32,0-.5-.21-1.31.38-1.52,12.69-4.56,9.97-.02-.38-6.07,10.05,1.36,20.22,2.52,30.37.76Z" fill="#8f4114" stroke-width="0"/><path d="M217.92,206.2c.42,4.29-.75,3.6-.76,3.8l-8.35.76c-2.14-.34-5.72.09-8.35,0-.85-.03-1.58.23-1.52-.76,6.28-.73,12.64-3.14,18.98-3.8Z" fill="#fded94" stroke-width="0"/><path d="M218.68,205.44l-.76.76c-6.34.66-12.71,3.06-18.98,3.8-.55.06-5.24.64-5.32.38,3.31-5.84,11.11,1.57,11.77-4.94h13.29Z" fill="#75220e" stroke-width="0"/><path d="M253.6,182.66c-8.54-.84-14.61-27.6-22.4-32.65-7.45-4.83-19.69-2.81-28.09-1.52,7.4,13.8-3.27,19.9-15.57,22.02,3.04-4.99,11.56-5.66,13.67-11.77,1.33-3.87,2.05-10.74-2.66-11.77,15.86-6.77,24.55-2.77,40.24-1.52q7.4,18.6,14.81,37.21Z" fill="#d88b32" stroke-width="0"/><path d="M245.25,183.42c-6.62-2.32-11.8-2.7-17.46,1.52.68-1.28.19-2.47,2.28-2.66l-1.14-1.14c-13.12-.84-34.43,2.44-43.66-3.8,6.02.96,45.4-7.72,59.6,2.28,2.44,1.72,1.77,1.88.38,3.8Z" fill="#e39f36" stroke-width="0"/><path d="M253.6,182.66c2,.2,8.01-1.3,15.95-.76,1,.07,2.04-.08,3.04,0,5.39.46,10.65,2.05,15.95,3.04,2.57.48,5.83.31,8.35.76-5.74,8.57-21.34,9.15-20.5,21.26.69,9.9,18.45,20.74,27.71,15.19-7.07,16.51-27.9-7.09-30.37-6.83-8.87,9.63-28.23,16.86-40.24,9.87-3.61-2.1-5.94-7.07-8.73-9.87,16.62,18.26,51.1,2.22,48.59-12.53-.82-4.83-9.33-7.93-12.91-10.25-2.55-1.65-13.38-8.48-15.19-9.11,1.39-1.91,2.06-2.08-.38-3.8-14.2-10-53.58-1.32-59.6-2.28-4.28-.68-6.69-2.42-6.07-6.83,2.57-.28,6.05.4,8.35,0,12.29-2.12,22.97-8.22,15.57-22.02,8.41-1.29,20.65-3.31,28.09,1.52,7.79,5.05,13.85,31.81,22.4,32.65Z" fill="#281a16" stroke-width="0"/><path d="M212.22,153.81c2.89-.14,2.64,8.95,5.32,9.87,6.55,2.25,1.1-10.7,9.87-8.35,2.9.78,5.79,10.71,12.53,13.29.25,1.1-19.11-2.43-21.64-2.66-13.67-1.23-16.26,5.5-6.07-12.15Z" fill="#fdfdfd" stroke-width="0"/><path d="M282.46,186.45c1.14.47,4.4.77,4.56,1.9l-11.77,8.73c-4.76-4.7-12.97-7.38-12.53-10.63,5.4,1.22,17.83,3.06,19.74,0Z" fill="#8a2634" stroke-width="0"/><path d="M282.46,186.45c-1.92,3.06-14.34,1.22-19.74,0-7.13-1.62,11.79-3.29,19.74,0Z" fill="#977878" stroke-width="0"/><path d="M290.05,182.66c7.03-13.67,34-4.45,41.38-6.07.67-.15,2.38-1.86,3.42-2.28-.43,5.8-40.29,12.05-44.8,8.35Z" fill="#f39334" stroke-width="0"/><path d="M264.99,115.84c.86,6.31.67,23.18,1.52,33.03.94,10.92,4.24,22.18,3.04,33.03-7.93-.54-13.94.96-15.95.76q-7.4-18.6-14.81-37.21c-15.69-1.25-24.38-5.25-40.24,1.52,4.71,1.02,3.99,7.9,2.66,11.77-2.11,6.11-10.62,6.78-13.67,11.77-2.3.4-5.78-.28-8.35,0-5.75,9.86-1.03,0-6.83.76.33-1.54,8.92-27.68,9.87-29.99,9.7-23.65,24.93-43.47,50.49-50.49,2.03.59,10.03,21.85,32.27,25.06Z" fill="#e0b14a" stroke-width="0"/><path d="M199.69,128.75c6.06-2.91,15.09-4.12,21.64-3.04,9.89,1.63,11.11,12.1,12.53-.76.12.08,1.25-.38,2.28,1.14-2.78,23.43-1.23,6.76-14.81,5.69-15.15-1.19-20.79,14.45-15.19-2.28-10.29,2.94-24.18,18.76-14.81,5.69,1.44-2.01,6.02-5.34,8.35-6.45Z" fill="#321710" stroke-width="0"/><path d="M233.86,124.95c-1.42,12.86-2.64,2.39-12.53.76-6.55-1.08-15.58.13-21.64,3.04,2.19-7.15,30.46-6.21,34.17-3.8Z" fill="#d88b32" stroke-width="0"/><path d="M291.57,90.02c22.31,7.66,41.4,52.86,46.32,74.41.1.45-.1,1.06,0,1.52-1.58.21-.14,3.34-1.14,3.8-4.38,2.01-9.08-62.25-49.73-78.97.19-.17-.38-2.02.38-2.28,1.65-.26,2.79,1.04,4.18,1.52Z" fill="#da7529" stroke-width="0"/><path d="M287.01,90.78c40.66,16.72,45.35,80.98,49.73,78.97,1-.46-.44-3.59,1.14-3.8,1.64,7.83,2.32,10.6,2.28,18.98-1.45-.15-2.55,1.18-3.8,1.52,4.88-4.04,1.44-6.9,2.28-13.29-3.07-1.45-2.78.73-3.8,1.14.5-6.67-22.94-5.85-15.19-25.06-.91-4.65-20.11-9.25-25.82,0-2.08,3.37-4.37,25.86-5.32,32.65-.14.98.09,2.04,0,3.04-5.29-.99-10.56-2.58-15.95-3.04q-3.04-34.74-6.07-69.47c9.84-4.28,13.13-15.04,20.5-21.64Z" fill="#e0b14a" stroke-width="0"/><path d="M314.35,127.99l-19.36-.76-1.9,12.15c-4.51,2.5-6.45-13.36-3.42-15.19,3.97-2.39,18.91.45,24.3.76,2.42,1.65.35,2.89.38,3.04Z" fill="#c27023" stroke-width="0"/><path d="M314.35,127.99c.5,2.58,1.67,5.36-.38,6.83-17.92-9.18-18.73,3.36-20.88,4.56l1.9-12.15,19.36.76Z" fill="#281a16" stroke-width="0"/><path d="M319.66,149.25c-8.55-1.59-17.23-2.66-25.82,0,5.71-9.25,24.9-4.65,25.82,0Z" fill="#d88b32" stroke-width="0"/><path d="M319.66,149.25c-7.75,19.2,15.68,18.39,15.19,25.06-1.03.42-2.75,2.13-3.42,2.28-7.38,1.62-34.35-7.59-41.38,6.07-.23-.18-1.12-.66-1.52-.76.95-6.79,3.24-29.28,5.32-32.65,8.58-2.66,17.27-1.59,25.82,0Z" fill="#281a16" stroke-width="0"/><path d="M298.02,155.32c6.72,22.92,7.02,3.66,7.97,1.9,1.46-2.68,10.2-5.26,12.91,8.35q-11.96,1.33-23.92,2.66l-1.14-1.14,4.18-11.77Z" fill="#fdfdfd" stroke-width="0"/></g></svg>