<?xml version="1.0" encoding="UTF-8"?><svg id="b" xmlns="http://www.w3.org/2000/svg" width="740.38" height="609.72" viewBox="0 0 740.38 609.72"><g id="c"><path d="M260.17,522.11c-1-.66-2-1.32-3-1.98,1,.66,2,1.32,3,1.98Z" stroke-width="0"/><path d="M300,601.53c.71.23,1.41.46,2.12.68-.71-.23-1.41-.46-2.12-.68Z" stroke-width="0"/><path d="M537.47,47.13c-.75-.46-1.49-.93-2.24-1.4.75.46,1.49.93,2.24,1.4Z" stroke-width="0"/><path d="M63.99,320.32c.37.3.74.6,1.11.9-.37-.3-.74-.6-1.11-.9Z" stroke-width="0"/><path d="M534.49,45.16c-.57-.33-1.13-.66-1.7-.98.56.33,1.13.66,1.7.98Z" stroke-width="0"/><path d="M257.17,520.14c-.46-.3-.92-.6-1.38-.91.46.3.92.61,1.38.91Z" stroke-width="0"/><path d="M237.66,344.62c-7.67,1.51-13.97-1.22-18.03-7.95-2.29-3.79-4.45-7.64-6.68-11.47-1.93-3.99-3.64-8.11-5.86-11.94-1.56-2.68-4.43-3.49-6.8-1.24-6.93,6.6-15.56,6.84-24.26,7.03-9.32.21-18.64.29-27.96.57-6.66.2-9.09,2.83-8.61,9.34,4.71,64.12,29.04,119.25,75.49,164.15,12.74,12.31,26.93,22.73,42.46,31.29,1.86,1.03,3.87,1.8,5.8,2.69,0,0-.07,0-.07,0,.68.34,1.35.68,2.03,1.02,0,0-.02-.01-.02-.01.7.35,1.4.7,2.1,1.05,20.38,10.81,42.16,17.74,64.59,22.51,58.3,12.41,115.31,8.28,170.5-14.9,28.1-11.8,52.66-28.9,73.57-51.18,7.88-8.39,6.36-8.15,14.74-.22,2.17,2.05,4.28,4.17,6.42,6.26,4.25,4.66,8.53,9.29,12.74,13.97,7.3,8.11,7.29,8.31.07,16.27-28.65,31.61-63.42,53.96-103.49,68.21-27.55,9.79-55.99,15.58-85.1,18.17-46.83,4.17-92.65-.41-137.27-15.66-.91-.31-1.93-.32-2.9-.47,0,0,.04.02.04.02-2.07-.73-4.14-1.46-6.22-2.2-14.02-6.39-28.45-12.03-42.01-19.29-69.54-37.22-114.04-94.7-135.98-170.06-7.17-24.62-12.29-49.64-13.34-75.37.08-14.62-.11-29.24.29-43.85.6-21.89,5.24-43.17,10.41-64.35.43-1.77.69-3.58,1.03-5.38,8.13-27.12,18.56-53.24,33.2-77.58C168.63,67.54,227.19,25.66,302.22,8.31,372.15-7.86,440.33-.68,505.04,31.99c3.24,1.63,6.4,3.42,9.6,5.13,14.16,10.18,29.15,19.39,42.34,30.7,47.08,40.37,75.64,92.04,90.2,151.9,7.01,28.84,8.86,58.18,8.96,87.7.02,6.22-2.23,8.93-8.75,8.96-15.32.07-30.63-.39-45.95-.63-12.99-.21-25.98-.43-38.97-.63-8.18-.12-14.82,2.9-19.95,9.43-4.11,5.24-8.24,10.52-12.92,15.23-4.24,4.26-9.23,7.78-13.9,11.62-10.44.65-16.38-3.03-21.43-13.52-7.26-15.1-14.42-30.24-21.62-45.36-2.36-5.11-4.46-10.37-7.21-15.26-1.04-1.85-3.53-3.76-5.48-3.9-1.21-.08-3.34,2.92-3.88,4.87-5.76,20.6-11.35,41.25-16.85,61.92-5.85,21.95-11.6,43.93-17.29,65.93-1.57,6.09-3.76,11.57-10.03,14.28-1,.08-1.99.16-2.99.22-9.42.63-13.69-2.22-15.92-11.31-2.85-11.61-5.39-23.29-8.03-34.95-6.52-28.81-13.01-57.62-19.52-86.42-1.65-7.44-3.17-14.93-5.08-22.31-.37-1.42-2.35-3.47-3.48-3.41-1.56.09-3.79,1.6-4.39,3.05-1.96,4.74-3.5,9.69-4.88,14.64-7.52,27.05-15.05,54.1-22.31,81.22-1.92,7.18-4.98,13.24-11.44,17.23-10.92,1.92-17.78-2.97-19.43-13.64-2.55-16.53-6.37-32.86-9.65-49.27-.97-5.68-1.71-11.43-3.03-17.03-.47-1.98-2.11-4.74-3.69-5.1-1.49-.34-4.3,1.57-5.32,3.23-7.19,11.7-14.14,23.55-21.02,35.44-3.34,5.78-7.5,10.48-14.05,12.61ZM219.61,282.96c3.59,7.04,6.92,14.24,10.84,21.09,3.1,5.42,6.86,5.22,10.05-.11.75-1.24,1.15-2.69,1.71-4.04,9.41-15.83,18.74-31.72,28.27-47.48,7.41-12.27,21.34-12.23,28.83-.08,2.85,15.07,5.61,30.17,8.68,45.19.31,1.53,2.57,3.84,3.75,3.74,1.64-.14,4-1.92,4.52-3.51,1.96-5.92,3.29-12.05,4.86-18.1,1.27-4.25,2.62-8.49,3.81-12.76,6.04-21.71,12.07-43.42,18.06-65.14,1.67-6.05,4.88-10.55,11.43-11.73,7.79-1.4,12.25,1.07,16.81,9.09.07,1.15-.02,2.33.23,3.44,9.6,42.62,19.21,85.23,28.87,127.84.99,4.37,2.03,8.76,3.59,12.94.58,1.55,2.67,3.44,4.12,3.49,1.35.04,3.55-1.92,4.02-3.43,1.73-5.52,2.9-11.22,4.28-16.85,4.19-15.5,8.42-30.99,12.57-46.5,4.07-15.22,7.91-30.5,12.14-45.67,2.64-9.44,8.25-13.26,17.14-12.46,6.32.57,10.09,4.49,12.8,9.78,1.03,2.43,1.98,4.9,3.11,7.27,11.87,24.83,23.71,49.67,35.7,74.45,3.38,6.99,6.68,7.29,11.88,1.53.65-.72,1.11-1.63,1.65-2.45,5.63-7.11,12.99-9.44,21.97-9.21,14.97.37,29.97-.04,44.95-.26,6.13-.09,8.73-2.37,9.58-8.48.57-4.1.93-8.31.68-12.43-.69-11.61-1.3-23.26-2.73-34.79-2.76-22.18-8.08-43.63-17.9-63.97-22.04-45.67-53.87-82.09-98.74-106.5-2.56-1.39-5.43-2.22-8.16-3.31-.62-.47-1.25-.94-1.87-1.41l.03.03c-1.69-.95-3.31-2.08-5.09-2.82-39.47-16.55-80.49-22.25-123.02-17.74-38.67,4.1-74.16,17.02-105.87,39.38-45.25,31.9-73.2,75.96-88.04,128.77-6.98,24.83-10.06,50.18-9.07,75.99.18,4.72,1.35,8.94,6.6,9.72,3.84.57,7.85-.04,11.79-.13,10.92,1.68,19.13-2.05,24.48-11.93,2.29-4.23,4.83-8.35,7.57-12.29,4.81-6.91,10.35-9.13,18.1-6.11,4.08,1.59,7.36,5.23,11,7.94Z" stroke-width="0"/><path d="M77.51,172c-.12,2.15-.35,4.31-.35,6.46-.02,42.16-.01,84.31-.02,126.47,0,9.54-3.58,12.65-12.99,11.23-3.12-.47-6.2-1.12-9.31-1.69-21.33-7.28-37.29-20.72-47.07-41.17-22.33-46.69,5.66-101.71,56.5-111.1,8.16-1.51,12.53,1.73,13.24,9.8Z" stroke-width="0"/><path d="M662.97,217.76c.03-14.44.04-28.88.09-43.33.03-10.59,4.44-13.98,14.79-11.96,10.91,2.13,20.74,6.63,29.97,12.65.46.34.91.69,1.37,1.03,0,0-.03-.04-.03-.04,4.54,4.59,9.5,8.83,13.55,13.81,35.11,43.28,15.54,107.74-37.63,124.23-3.62,1.12-7.38,2.07-11.13,2.43-6.06.57-9.72-2.8-10.31-8.92-.16-1.65-.09-3.33-.09-4.99,0-24.82,0-49.64-.04-74.46,0-3.48-.34-6.96-.53-10.45Z" stroke-width="0"/><path d="M265.19,528.11c-.68-.34-1.35-.68-2.03-1.02.68.34,1.35.68,2.03,1.02Z" stroke-width="0"/><path d="M267.27,529.15c-.7-.35-1.4-.7-2.1-1.05.7.35,1.4.7,2.1,1.05Z" stroke-width="0"/><path d="M274.97,589.95c2.07.73,4.14,1.46,6.22,2.2-2.07-.73-4.14-1.46-6.22-2.2Z" stroke-width="0"/><path d="M709.18,176.15c-.46-.34-.91-.69-1.37-1.03.46.34.91.69,1.37,1.03Z" stroke-width="0"/><path d="M473,73.56c-.62-.47-1.25-.94-1.87-1.41.62.47,1.25.94,1.87,1.41Z" stroke-width="0"/><path d="M460.55,70.96c-.54-.26-1.09-.52-1.64-.78.54.26,1.09.52,1.64.78Z" stroke-width="0"/></g></svg>